<svg width="24" height="20" xmlns="http://www.w3.org/2000/svg"><g fill="#383434" fill-rule="nonzero"><path d="M4.212 12.375C2.92 12.647 2 13.738 2 14.998v.09c0 1.242.918 2.313 2.197 2.562l1.796.35v-6l-1.78.375zm1.35-2.328A2 2 0 0 1 7.992 12v6.011a2 2 0 0 1-2.4 1.96l-1.797-.367C1.586 19.152 0 17.497 0 15.242v-.094a4.821 4.821 0 0 1 3.78-4.707l1.781-.394zM21.993 14.998v.09c0 1.242-.918 2.313-2.197 2.562L18 18v-6l1.78.375c1.293.272 2.213 1.363 2.213 2.623zm-3.561-4.95A2 2 0 0 0 16 12v6.043a2 2 0 0 0 2.4 1.96l1.797-.368c2.21-.452 3.796-2.138 3.796-4.393v-.094a4.821 4.821 0 0 0-3.78-4.707l-1.781-.394z"/><path d="M5.014 10v1.015H3.022V10c0-5.923 3.059-9.995 8.995-9.995 5.937 0 8.995 4.266 8.995 9.995v1.015h-1.859V10c0-4.046-2.057-8-7.136-8-5.079 0-7.003 3.775-7.003 8z"/></g></svg>