<svg width="816" height="400" xmlns="http://www.w3.org/2000/svg"><defs><linearGradient x1="50%" y1="0%" x2="50%" y2="100%" id="a"><stop stop-color="#FAD961" offset="0%"/><stop stop-color="#FB9E4A" offset="100%"/></linearGradient></defs><g fill="none" fill-rule="evenodd"><path d="M728.749 124.638h8.135v8.071h-8.135z"/><path d="M736.884 128.673c0 2.23-1.821 4.036-4.067 4.036-2.247 0-4.068-1.806-4.068-4.036 0-2.229 1.82-4.035 4.068-4.035 2.246 0 4.067 1.806 4.067 4.035M338.824 139.13c0 3.202-2.587 5.798-5.777 5.798s-5.777-2.596-5.777-5.797c0-3.203 2.587-5.798 5.777-5.798s5.777 2.595 5.777 5.798M711.419 147.826a2.894 2.894 0 0 1-2.889 2.899 2.893 2.893 0 0 1-2.888-2.9c0-1.6 1.293-2.897 2.888-2.897a2.894 2.894 0 0 1 2.889 2.898M604.55 57.971c0 3.202-2.586 5.797-5.776 5.797s-5.777-2.595-5.777-5.797c0-3.202 2.587-5.797 5.777-5.797s5.777 2.595 5.777 5.797M413.817 122.896a5.763 5.763 0 0 1-8.17 0 5.813 5.813 0 0 1 0-8.198 5.764 5.764 0 0 1 8.17 0 5.812 5.812 0 0 1 0 8.198M680.844 21.49a5.763 5.763 0 0 1-8.17 0 5.813 5.813 0 0 1 0-8.198 5.764 5.764 0 0 1 8.17 0 5.813 5.813 0 0 1 0 8.199" fill="#FFF"/><path d="M307.052 333.333h8.135v5.381h-8.135z"/><path d="M716.35 83.209a2.88 2.88 0 0 1-4.086 0 2.907 2.907 0 0 1 0-4.1 2.882 2.882 0 0 1 4.085 0 2.905 2.905 0 0 1 0 4.1M569.044.849a2.881 2.881 0 0 0-4.085 0 2.907 2.907 0 0 0 0 4.099 2.88 2.88 0 0 0 4.085 0 2.905 2.905 0 0 0 0-4.1M491.905 20.29c0 1.6-1.293 2.898-2.888 2.898a2.894 2.894 0 0 1-2.888-2.898c0-1.6 1.293-2.899 2.888-2.899a2.894 2.894 0 0 1 2.888 2.899M353.265 107.246c0 1.6-1.293 2.899-2.888 2.899a2.894 2.894 0 0 1-2.888-2.899c0-1.6 1.293-2.898 2.888-2.898a2.893 2.893 0 0 1 2.888 2.898M237.732 98.55c0 1.6-1.293 2.9-2.888 2.9a2.894 2.894 0 0 1-2.889-2.9c0-1.6 1.293-2.898 2.889-2.898a2.893 2.893 0 0 1 2.888 2.898M281.057 176.811c0 1.6-1.293 2.9-2.888 2.9a2.894 2.894 0 0 1-2.889-2.9c0-1.6 1.293-2.898 2.889-2.898a2.893 2.893 0 0 1 2.888 2.898M292.61 156.521c0 1.6-1.293 2.9-2.888 2.9a2.894 2.894 0 0 1-2.888-2.9c0-1.6 1.293-2.898 2.888-2.898a2.893 2.893 0 0 1 2.888 2.898M255.062 149.275c0 .8-.647 1.45-1.444 1.45-.798 0-1.444-.65-1.444-1.45 0-.8.646-1.449 1.444-1.449.797 0 1.444.649 1.444 1.45M714.307 163.768c0 .8-.646 1.45-1.444 1.45-.797 0-1.444-.65-1.444-1.45 0-.8.647-1.45 1.444-1.45.798 0 1.444.65 1.444 1.45" fill="#FFF"/><g><path d="M665.158 330.435h52.814v14.145h-52.814z"/></g><g><path d="M144.586 296.03c0-5.703 122.505-10.325 273.622-10.325 151.117 0 273.622 4.622 273.622 10.325 0 5.702-122.505 10.325-273.622 10.325-151.117 0-273.622-4.623-273.622-10.325M264.24 372.247c0-4.165 23.73-7.542 53-7.542 29.272 0 53 3.377 53 7.542 0 4.166-23.728 7.543-53 7.543-29.27 0-53-3.377-53-7.543" fill-opacity=".5" fill="#B08345"/><path d="M315.812 9.667a1.87 1.87 0 0 0 1.861 1.877 1.87 1.87 0 0 0 1.862-1.877 1.87 1.87 0 0 0-1.862-1.877 1.87 1.87 0 0 0-1.86 1.877" fill="#FFF"/><path d="M553.152 155.88s53.067 49.548 86.059 62.657c5.396 2.144 89.446-17.235 89.446-17.235s2.198-4.04 4.083-6.623c2.27-3.112 6.57-5.485 7.53-7.062 1.76-2.885 7.294-6 7.294-6s2.337.438.24 3.98l-20.671 34.922s-61.705 29.666-102.184 29.436c-49.254-24.813-107.426-69.861-107.426-69.861-14.836-27.53 23.255-45.066 35.629-24.215" fill="#FFE3B0"/><path d="M649.722 95.33c9.084-41.824-3.078-60.775-31.104-70.67-39.782-14.046-64.053-.239-76.328 25.195-8.25 17.094-16.675 26.487-37.516 23.61-44.577-6.154-80.602 19.9-69.746 66.886 6.496 28.117 33.033 47.544 58.485 60.181 6.242 3.1 12.42 5.79 18.22 8.1 34.735 13.837 70.862 27.803 99.82 11.336 11.764-6.688 22.344-18.398 31.167-37.177 8.265-17.59-5.796-33.613 5.663-37.472 14.918-5.022 23.958-19.441 11.486-30.3-5.746-5.004-11.936-11.449-10.147-19.688" fill="#F27B01"/><path d="M584.998 98.264c-10.754-6.543-12.631-12.416-13.763-25.501-19.43 2.323-8.481 21.831-20.472 37.038-10.51 13.33-47.323 11.762-65.605 25.345-14.727 10.939-12.195 46.346 9.696 65.357 6.243 3.103 12.422 5.797 18.222 8.11 34.741 13.85 70.872 27.832 99.834 11.348 20.026-22.884 4.685-47.783-12.467-59.297-22.264-14.948-10.958-24.773.745-27.802 31.268-8.09 41.92-21.454 24.736-83.772-7.368 23.639-42.716 57.423-40.926 49.174" fill="#E44B03"/><path d="M207.537 278.116c-12.408-2.688-28.17-9.169-43.392-18.285-6.77-4.055-9.968-12.236-7.673-19.85l31.37-146.724a29.057 29.057 0 0 0-.978-19.509l-11.788-28.413 39.139 31.833-8.447 152.076 30.005 14.639-28.236 34.233z" fill="#FFE3B0"/><path d="M222.068 68.61l-7.44 9.83c-10.752-8.539-13.58-12.974-34.9-21.185-21.374-16.951-33.241-28.776-28.593-31.465 23.83 0 33.976 17.375 48.197 23.323 19.466 8.142 25.226 14.354 22.736 19.496z" fill="#182933"/><path d="M186.865 257.744C175.322 208.236 127 140.262 86.447 73.467L67.475 60.693l-37.384 2.174s-9.81 4.418 6.18 9.273c15.99 4.854 23.388 6.164 31.204 17.256 25.293 35.896 65.628 138.706 77.544 181.286 3.072 10.977 10.174 20.339 19.853 26.205L211 298.766l4.298-58.482-28.433 17.46z" fill="#FFE3B0"/><path d="M84.317 60.171l2.37 13.914c-8.127-5.018-21.063-13.914-50.493-1.808C.744 74.33-.186 69.855 1.883 64.81c17.643-9.846 40.26-8.288 56.194-9.846 14.991-1.466 25.02.9 26.24 5.206z" fill="#182933"/><path d="M558.382 161.807c17.002 65.126 0 78.538-25.053 91.825-38.996 30.683-74.935 42.968-88.879 44.216-57.36 5.13-165.822 4.884-270.102 0l31.305-78.015c49.214-15.059 90.112-24.066 117.256-27.146 64.566-7.325 78.305 31.335 103.36 23.469 21.156-15.018 24.72-36.816 68.064-71 24.956-19.68 48.242-20.976 48.242-20.976s13.138 27.402 15.807 37.627z" fill="#355368"/><path d="M625.211 49.09c9.556 36.947-1.948 74.47-29.603 70.9-10.917-1.411-17.212 7.977-21.795 18.072-7.285 16.047-6.375 11.083-11.59 38.681-11.89-6.243-19.14-43.262-19.323-52.11 4.814-5.206 22.137-12.5 20.772-23.136-1.504-11.711-3.206-23.303 7.096-28.814 6.7-3.583 10.786 1.792 10.387 9.777 16.245-4.308 31.454-13.143 44.056-33.37" fill="#FFE3B0"/><path d="M617.354 82.973c-.02 1.035-2.536 1.833-5.62 1.782-3.085-.052-5.568-.932-5.548-1.968.02-1.035 2.537-1.833 5.62-1.782 3.085.051 5.568.933 5.548 1.968" fill="#355368"/><path d="M608.048 77.249c1.948-2.257 4.596-3.355 7.226-3.687 2.632-.263 5.41.205 7.665 2.015-2.665.245-5.037.324-7.462.621-2.427.24-4.768.712-7.43 1.05" fill="#F27B01"/><path d="M494.57 165.48c-.773 24.154 28.854 95.766 18.845 102.282l21.606-14.423-40.45-87.86z" fill="#1C3251"/><path d="M535.428 158.545s26.098 75.754 48.585 103.577c3.668 4.54 118.102-14.244 118.102-14.244l8.308 16.598s-94.298 44.081-146.546 29.429c-40.983-47.074-67.627-116.749-67.627-116.749-10.583-29.56 30.03-41.174 39.178-18.611" fill="#FFE3B0"/></g><g><path d="M741.462 289.88c17.724 4.05 52.456 4.758 52.456 21.254 0 16.32-50.266 22.419-95.906 22.419-90.753 0-70.733 33.447-143.262 33.447-72.53 0-48.262-42.842-160.088-42.842s-169.075 21.562-176.517 23.841" stroke-opacity=".5" stroke="#B08345"/><path d="M725.33 224.29l1.412 1.418c-1.951 1.943-2.005 6.254-.872 20.132.27 3.299.42 5.33.543 7.487.424 7.475.233 13.084-.84 17.72-2.169 9.383 4.42 15.084 18.274 17.84 2.67.53 5.601.978 10.37 1.621.694.094 3.741.5 4.56.61 1.802.243 3.262.447 4.668.653 9.606 1.407 16.174 2.914 21.314 5.216 6.593 2.954 10.159 7.104 10.159 12.804 0 15.364-40.943 23.314-96.906 23.314-21.029 0-37.13 1.77-50.22 5.17-10.165 2.64-17.395 5.751-27.77 11.356-.918.497-4.096 2.228-4.103 2.231-9.579 5.203-15.354 7.82-23.357 10.109-10.248 2.93-22.307 4.427-37.812 4.427-14.252 0-25.459-1.62-35.082-4.81-7.696-2.552-13.662-5.687-22.451-11.325.328.21-6.37-4.124-8.306-5.34-10.825-6.798-19.982-11.104-32.522-14.542-15.86-4.347-35.763-6.627-61.727-6.627-48.854 0-92.23 4.63-129.622 12.347-13.082 2.7-24.48 5.592-34.13 8.482a230.508 230.508 0 0 0-8.736 2.79c-.854.294-1.589.554-2.202.779-.244.089-.728-.443-1.45-1.594 1.389-.513 2.135-.778 3.002-1.076a232.49 232.49 0 0 1 8.812-2.815c9.706-2.907 21.16-5.813 34.3-8.524 37.523-7.744 81.033-12.39 130.026-12.39 26.131 0 46.208 2.3 62.255 6.7 12.748 3.494 22.078 7.882 33.057 14.776 1.95 1.225 8.661 5.568 8.323 5.35 8.66 5.556 14.493 8.621 22 11.11 9.41 3.12 20.405 4.709 34.453 4.709 15.329 0 27.204-1.474 37.262-4.35 7.832-2.24 13.491-4.805 22.952-9.943.004-.002 3.186-1.735 4.108-2.233 10.504-5.675 17.872-8.846 28.217-11.532 13.267-3.446 29.535-5.235 50.723-5.235 54.323 0 94.906-7.88 94.906-21.314 0-8.824-9.477-13.07-29.763-16.041a407.13 407.13 0 0 0-4.646-.65l-4.56-.61c-4.807-.648-7.77-1.1-10.492-1.642-14.81-2.945-22.33-9.45-19.832-20.251 1.02-4.409 1.206-9.856.791-17.157-.121-2.135-.271-4.154-.54-7.437-.64-7.85-.785-10.088-.746-13.16.053-4.264.675-7.033 2.2-8.552z" fill="#1C3251" fill-rule="nonzero"/><path d="M742.067 260.627l-13.639-4.263 17.71 2.729c6.18 2.091 7.44-1.02.78-3.43l-8.739-2.753c-17.099-5.39-35.532-6.29-53.17-2.597l-9.952 2.083 7.151 16.005 11.79 4.162 28.457 2.495s6.25 2.65 8.595 3.723c.948.433 3.714-.794 2.345-2.039-1.366-1.245-3.055-3.435-4.596-4.186-1.54-.751.142-1.717 2.37-.966 2.226.751 9.96 5.105 9.96 5.105 2.684.779 10.395-3.19 9.246-6.021-1.183-2.914-5.344-9.12-8.308-10.047" fill="#FFE3B0"/><path d="M269.909 237.702c8.137-21.491 41.888-29.264 52.35-8.65 10.839 21.3 4.914 42.18-6.037 71.788-4.725 20.004-17.926 39.437-21.488 30.711-2.024 14.213-5.512 11.279-9.263 5.03-.337 8.458-1.8 12.154-6.262 3.39 0 0-19.388-75.673-9.3-102.27" fill="#C4C1AD"/><path d="M323.344 372c4.745-11.766-17.738-1.12-19.77-7.397l-.528-6.126c.302-4.11-4.933-5.977-7.155-3.063l-3.842 5.304c-4.481 6.538-20.034 5.006-26.323 5.006-3.427 0-7.757.075-4.67 6.276h62.288z" fill="#E44B03"/><path d="M280 286s13.524 37.864 15.585 44.12c2.06 6.254 1.049 16.507-2.472 26.353-1.499 4.478 9.066 5.96 10.564 2.96L319 326.086l-13.487-32.867L280 286z" fill="#C4C1AD"/><path d="M284.662 172.26c-26.067 7.78-42.632 30.513-32.79 61.522 5.709 18.003 10.742 27.843 13.446 35.625 11.72 40.163 44.097 87.992 94.204 54.046 3.456-2.327 6.95-9.65 8.377-15.752 3.756-16.058 3.155-40.507-7.437-75.559-13.072-43.1-30.463-73.422-75.8-59.882" fill="#E8E6D2"/><path d="M292.975 196.6c-25.418-16.577-44.855-.601-37.342 21.802 7.626 22.666 30.39 36.762 47.248 35.522 16.372-4.36 33.268-25.185 33.118-49.092-.111-23.643-23.436-30.597-43.024-8.232" fill="#FFF"/><path d="M311.177 212.912c8.946 6.736 20.454-4.21 11.7-13.18-8.756-8.969-20.645 6.444-11.7 13.18" fill="#1C3251"/><path d="M315.668 206.99a1.493 1.493 0 0 1-1.659-1.324 1.491 1.491 0 0 1 1.327-1.657 1.494 1.494 0 0 1 1.66 1.325c.06.813-.513 1.566-1.328 1.657M320.997 205.067a.991.991 0 0 1-1.063.93.992.992 0 0 1-.93-1.064.992.992 0 0 1 1.063-.93c.532 0 .974.488.93 1.064" fill="#FFF"/><path d="M287.548 218.644c-3.442 7.643-23.78 5.072-18.754-6.484 5.025-11.557 22.196-1.16 18.754 6.484" fill="#1C3251"/><path d="M279.99 213.321c.091.835-.481 1.55-1.324 1.67-.813.09-1.567-.507-1.657-1.312-.09-.835.482-1.55 1.325-1.67.813-.09 1.536.507 1.657 1.312M281.997 212.087c-.044.563-.52.953-1.083.91-.564-.044-.954-.52-.91-1.083.043-.564.52-.953 1.082-.91.565.043.954.52.91 1.083" fill="#FFF"/><path d="M293.79 230.018c-1.25-2.108-.985-5.098.568-6.172 2.35-1.61 6.253-2.3 8.98-1.533 1.819.499 3.07 3.22 2.54 5.636l-3.07 14.26c-.19.92-1.023 1.073-1.516.269l-7.501-12.46z" fill="#F27B01"/><path d="M331 276.288c12.843 23.96 33.49 63.879 44.58 74.27 5.563 5.233 8.848 1.42 9.184-5.42 8.737 3.589 9.11-3.29 6.272-14.166 7.094 3.102 8.849-1.159-.224-15.325-12.433-19.474-30.242-37.004-49.992-54.647L331 276.288z" fill="#F6F6F6"/><path d="M351.342 376c4.757-11.766-17.778-1.12-19.816-7.396l-.529-6.127c.302-4.11-4.945-5.977-7.172-3.063l-3.888 5.304c-4.492 6.538-20.081 5.006-26.384 5.006-3.435 0-7.324.785-4.681 6.276h62.47z" fill="#F27B01"/><path d="M309 291s7.531 21.947 10.055 35.777c1.591 8.802 2.251 30.71 2.251 30.71 1.32 6.287 6.716 4.65 9.783 3.087 5.59-4.458 5.085-12.46 7.26-24.424 1.746-9.64-.156-23.203-4.077-36.653L309 291z" fill="#E8E6D2"/><path d="M362 375c-3.95-4.943-8.018-5.958-12.124-4.193-1.705.574-.581 3.311.503 2.825 3.718-1.766 7.593-1.368 11.621 1.368" fill="#FFF"/><path d="M280 371c4.057-3.18 7.966-3.668 11.764-2.232 2.36 1.07.886 2.293-.664 1.926-3.43-1.437-7.154-1.345-11.1.306M252 365.243c5.317-2.143 9.333-1.405 12.431 1.37.918.667.918 3.514-1.454 1.897-2.753-2.67-6.387-3.794-10.977-3.267" fill="#E8E6D2"/><path d="M305.279 264.33c-3.482-24.675 26.374-49.425 48.266-35.118 22.596 14.767 28.004 37.719 33.116 71.574 6.149 21.498 3.408 46.823-4.964 40.358 5.742 14.574.593 13.58-6.63 9.563 4.296 8.225 4.815 12.51-4.483 6.427-.037 0-60.971-62.24-65.305-92.805" fill="#C4C1AD"/><path d="M282 376c3.84-4.943 7.792-5.958 11.782-4.193 2.333 1.457.828 3.267-.49 2.825-3.651-1.81-7.415-1.413-11.292 1.368M252 369.24c4.327-2.637 8.217-2.806 11.78-1.235 1.746.533 1.746 2.778-.836 1.711-3.236-1.543-6.871-1.74-10.944-.477" fill="#FFF"/><path d="M219.458 346.242l.623 1.9c-15.791 5.174-21.733 14.243-16.382 22.541 5.832 9.047 23.184 15.184 47.197 15.184 17.384 0 32.085-6.046 41.9-17.942 10.99-13.322 15.624-33.541 12.77-60.302l1.988-.212c2.907 27.257-1.848 48.008-13.216 61.787-10.22 12.388-25.493 18.67-43.442 18.67-24.623 0-42.597-6.359-48.878-16.101-6.216-9.64.57-19.998 17.44-25.525z" fill="#1C3251" fill-rule="nonzero"/><path d="M307.628 307.914l-1.993.172c-1.642-18.947.986-34.02 7.92-45.202 4.128-6.655 8.46-11.717 13.359-15.98 1.91-1.663 3.841-3.156 6.162-4.808.943-.671 4.63-3.218 5.513-3.851 9.34-6.692 12.515-12.91 12.515-29.198h2c0 16.93-3.484 23.756-13.35 30.824-.902.645-4.592 3.195-5.518 3.854-2.272 1.618-4.154 3.073-6.01 4.687-4.749 4.133-8.95 9.043-12.971 15.526-6.68 10.773-9.235 25.425-7.627 43.976z" fill="#1C3251" fill-rule="nonzero"/></g><path d="M37.671 154.92c-5.462-6.228-5.832-15.282-1.421-21.92a20.61 20.61 0 0 0-11.27 5.213c-8.576 7.774-9.357 21.114-1.745 29.795 7.612 8.68 20.735 9.417 29.31 1.642a21.177 21.177 0 0 0 6.38-10.79 17.397 17.397 0 0 1-21.254-3.94" fill="#FFF"/><path d="M24.367 140c-6.81 7.83-7.493 19.142 0 27.788 7.493 8.647 23.386 6.02 28.922-1.676-12.484 5.933-36.564-1.877-28.922-26.112z" fill="#C4C1AD" opacity=".2"/><g transform="rotate(45 198.089 1014.08)"><path d="M22.767.513l-15.5.966C3.182 1.734 0 5.111 0 9.191V75.81c0 4.08 3.182 7.457 7.267 7.712l15.5.966c4.271.266 7.95-2.97 8.218-7.23.01-.16.015-.322.015-.482V8.225C31 3.958 27.53.498 23.25.498c-.161 0-.322.005-.483.015z" fill="#182933" fill-rule="nonzero"/><ellipse fill="url(#a)" cx="7.75" cy="75.341" rx="1.938" ry="3.864"/><path d="M8.035 75.696c.038-.08.114-.07.147 0a.422.422 0 0 1 0 .312l-.31.682v.824c0 .138-.052.242-.122.242s-.121-.104-.121-.242v-.824l-.312-.655a.448.448 0 0 1 0-.315c.035-.082.105-.087.138-.024.032.064.287.6.295.613.008-.014.262-.565.285-.613zm.44-2.287c.065 0 .123.12.123.247v3.138c0 .126-.055.243-.123.243s-.117-.117-.117-.243v-2.548l-.492 1.157c-.072.141-.156.144-.237 0l-.485-1.157v2.548c0 .129-.052.243-.12.243s-.122-.114-.122-.243v-3.161c0-.127.056-.224.122-.224.054 0 .088.04.12.141l.606 1.411.608-1.41c.034-.096.066-.142.117-.142z" fill="#BE5B04" fill-rule="nonzero"/><g fill-rule="nonzero"><path d="M2.847 9.577l19.313-1.75a1 1 0 0 1 1.09.995v57.792a1 1 0 0 1-1 1H2.937a1 1 0 0 1-1-1V10.573a1 1 0 0 1 .91-.996z" fill="#FFF"/><path d="M4.782 13.438l13.485-1.259a1 1 0 0 1 1.093.996v1.855a1 1 0 0 1-.907.995l-13.485 1.26a1 1 0 0 1-1.093-.996v-1.855a1 1 0 0 1 .907-.996zm.01 7.736l9.626-.793a1 1 0 0 1 1.082.997v1.857a1 1 0 0 1-.918.997l-9.625.792a1 1 0 0 1-1.082-.996V22.17a1 1 0 0 1 .918-.997zm.017 7.742l11.47-.753a1 1 0 0 1 1.066.998v1.86a1 1 0 0 1-.934.997l-11.47.753a1 1 0 0 1-1.066-.998v-1.86a1 1 0 0 1 .934-.997zm.027 7.751l13.542-.522a1 1 0 0 1 1.039 1v1.862a1 1 0 0 1-.962.999l-13.541.522a1 1 0 0 1-1.039-1v-1.861a1 1 0 0 1 .961-1zm.039 7.765h11.562a1 1 0 0 1 1 1v1.863a1 1 0 0 1-1 1H4.876a1 1 0 0 1-1-1v-1.863a1 1 0 0 1 1-1zm0 7.727h13.5a1 1 0 0 1 1 1v1.864a1 1 0 0 1-1 1h-13.5a1 1 0 0 1-1-1v-1.864a1 1 0 0 1 1-1zm0 7.727h5.75a1 1 0 0 1 1 1v1.864a1 1 0 0 1-1 1h-5.75a1 1 0 0 1-1-1v-1.864a1 1 0 0 1 1-1z" fill="#E8E6DD"/></g><rect fill="#39474F" fill-rule="nonzero" x="25.188" y="13.523" width="1.938" height="9.659" rx=".5"/><rect fill="#39474F" fill-rule="nonzero" x="25.188" y="7.727" width="1.938" height="3.864" rx=".5"/></g><g transform="rotate(-10 1083.474 -1210.386)" fill-rule="nonzero"><path d="M64.093 4.754c32.33 0 50.05 11.748 53.16 35.246H122C116.202 13.333 96.69 0 63.466 0 30.242 0 11.42 13.333 7 40h4.746c2.57-23.498 20.019-35.246 52.347-35.246z" fill="#182933"/><ellipse fill="#182933" cx="116.5" cy="54" rx="9.5" ry="19"/><ellipse fill="#182933" cx="11.5" cy="54" rx="9.5" ry="19"/><path d="M6.364 68c3.515 0 3.515-28 0-28S0 46.268 0 54s2.85 14 6.364 14z" fill="#1C3251"/><ellipse fill="#496B83" cx="2.5" cy="54" rx="2.5" ry="7"/><path d="M122.636 68c3.515 0 6.364-6.268 6.364-14s-2.85-14-6.364-14c-3.515 0-3.515 28 0 28z" fill="#1C3251"/><ellipse fill="#496B83" cx="126.5" cy="54" rx="2.5" ry="7"/></g></g></svg>