<svg xmlns="http://www.w3.org/2000/svg" viewBox="0 0 441.21 107.74"><defs><style>.cls-5{fill:#253b80}.cls-6{fill:#179bd7}</style><clipPath id="clip-path"><path id="_Clipping_Path_" data-name="&lt;Clipping Path&gt;" fill="none" d="M0 0h442.69v117.81H0z"/></clipPath><clipPath id="clip-path-4"><path id="_Clipping_Path_4" data-name="&lt;Clipping Path&gt;" clip-rule="evenodd" fill="none" d="M442.69 0v117.81H0V0"/></clipPath></defs><path id="_Compound_Path_" data-name="&lt;Compound Path&gt;" class="cls-5" d="M167.79 47c-1.33 8.76-8 8.76-14.5 8.76h-3.68l2.58-16.36a2 2 0 0 1 2-1.72h1.69c4.41 0 8.57 0 10.72 2.52 1.29 1.46 1.68 3.68 1.19 6.8zM165 24.09h-24.44a3.4 3.4 0 0 0-3.35 2.91l-9.88 62.61a2 2 0 0 0 2 2.35H141a3.4 3.4 0 0 0 3.36-2.87L147 72.16a3.39 3.39 0 0 1 3.35-2.86h7.73c16.08 0 25.36-7.79 27.79-23.21 1.09-6.75 0-12.05-3.12-15.76-3.45-4.08-9.6-6.24-17.75-6.24z"/><path id="_Compound_Path_2" data-name="&lt;Compound Path&gt;" class="cls-5" d="M221.66 69.43a13 13 0 0 1-13.19 11.17c-3.39 0-6.11-1.09-7.85-3.15a9.94 9.94 0 0 1-1.83-8.22A13.08 13.08 0 0 1 211.89 58a9.87 9.87 0 0 1 7.8 3.18 10.13 10.13 0 0 1 1.97 8.25zM238 46.68h-11.73a2 2 0 0 0-2 1.72l-.52 3.27-.82-1.19c-2.53-3.67-8.17-4.9-13.81-4.9-12.92 0-24 9.78-26.1 23.51-1.12 6.85.47 13.4 4.36 18 3.56 4.2 8.66 6 14.72 6a22.4 22.4 0 0 0 16.19-6.69l-.53 3.25a2 2 0 0 0 2 2.35h10.53a3.38 3.38 0 0 0 3.35-2.86L240 49a2 2 0 0 0-2-2.32z"/><path id="_Path_" data-name="&lt;Path&gt;" class="cls-5" d="M300.23 46.68h-11.75a3.42 3.42 0 0 0-2.81 1.49L269.47 72l-6.87-22.9a3.4 3.4 0 0 0-3.26-2.42H247.8a2 2 0 0 0-1.93 2.69l12.94 38-12.17 17.18a2 2 0 0 0 1.66 3.21H260a3.37 3.37 0 0 0 2.79-1.46l39.11-56.43a2 2 0 0 0-1.67-3.19z"/><path id="_Compound_Path_3" data-name="&lt;Compound Path&gt;" class="cls-6" d="M342 47c-1.33 8.76-8 8.76-14.5 8.76h-3.69l2.59-16.36a2 2 0 0 1 2-1.72h1.69c4.4 0 8.57 0 10.72 2.52 1.24 1.46 1.63 3.68 1.19 6.8zm-2.82-22.87h-24.47a3.4 3.4 0 0 0-3.35 2.87l-9.87 62.61a2 2 0 0 0 2 2.35H316a2.38 2.38 0 0 0 2.35-2l2.8-17.75a3.39 3.39 0 0 1 3.35-2.86h7.72c16.09 0 25.37-7.79 27.8-23.21 1.09-6.75 0-12.05-3.12-15.76-3.45-4.13-9.6-6.29-17.77-6.29z"/><path id="_Compound_Path_4" data-name="&lt;Compound Path&gt;" class="cls-6" d="M395.81 69.43a13 13 0 0 1-13.19 11.17c-3.39 0-6.11-1.09-7.85-3.15a9.94 9.94 0 0 1-1.83-8.22A13.09 13.09 0 0 1 386 58a9.84 9.84 0 0 1 7.79 3.18 10.06 10.06 0 0 1 2.02 8.25zm16.3-22.75h-11.68a2 2 0 0 0-2 1.72l-.52 3.27-.82-1.19c-2.53-3.67-8.17-4.9-13.81-4.9-12.92 0-23.95 9.78-26.1 23.51-1.11 6.85.47 13.4 4.36 18 3.57 4.2 8.66 6 14.72 6a22.4 22.4 0 0 0 16.19-6.69l-.53 3.25a2 2 0 0 0 2 2.35h10.53a3.38 3.38 0 0 0 3.34-2.86l6.33-40a2 2 0 0 0-2.01-2.46z"/><path id="_Path_2" data-name="&lt;Path&gt;" class="cls-6" d="M425.89 25.81l-10 63.76a2 2 0 0 0 2 2.35H428a3.4 3.4 0 0 0 3.36-2.87l9.88-62.61a2 2 0 0 0-2-2.35H427.9a2 2 0 0 0-2.01 1.72z"/><path id="_Path_3" data-name="&lt;Path&gt;" class="cls-5" d="M25.94 104.08l1.87-11.86-4.16-.09H3.79l13.8-87.52a1.1 1.1 0 0 1 .41-.68 1.08 1.08 0 0 1 .73-.27H52.2C63.32 3.66 71 6 75 10.54a15.69 15.69 0 0 1 3.66 6.84 24.92 24.92 0 0 1 0 9.44v2.69l1.88 1.06a13.28 13.28 0 0 1 3.8 2.9 13.55 13.55 0 0 1 3.08 6.92 28.93 28.93 0 0 1-.44 10 35.13 35.13 0 0 1-4.11 11.36 23.4 23.4 0 0 1-6.51 7.14 26.63 26.63 0 0 1-8.78 4 43.84 43.84 0 0 1-11 1.27H54a7.82 7.82 0 0 0-7.75 6.61L46 81.84l-3.3 20.9-.15.77a.68.68 0 0 1-.21.45.56.56 0 0 1-.34.12z"/><path id="_Path_4" data-name="&lt;Path&gt;" class="cls-6" d="M82.28 27.37c-.1.64-.21 1.29-.34 2C77.52 52 62.42 59.84 43.12 59.84h-9.83a4.77 4.77 0 0 0-4.71 4l-5 31.91-1.43 9a2.51 2.51 0 0 0 2.49 2.9H42a4.18 4.18 0 0 0 4.14-3.53l.17-.89 3.28-20.82.21-1.14a4.2 4.2 0 0 1 4.2-3.46h2.6c16.89 0 30.1-6.85 34-26.69 1.62-8.29.78-15.21-3.49-20.07a16.47 16.47 0 0 0-4.83-3.68z"/><path id="_Path_5" data-name="&lt;Path&gt;" d="M77.66 25.53c-.67-.2-1.37-.38-2.08-.54s-1.45-.29-2.21-.41a54.33 54.33 0 0 0-8.66-.64H38.46a4.19 4.19 0 0 0-4.14 3.55l-5.58 35.36-.16 1a4.77 4.77 0 0 1 4.71-4h9.83c19.3 0 34.4-7.83 38.82-30.5.13-.68.24-1.33.34-2a23 23 0 0 0-3.63-1.53z" fill="#222d65"/><path id="_Path_6" data-name="&lt;Path&gt;" class="cls-5" d="M34.32 27.49a4.18 4.18 0 0 1 2.33-3.13 4.07 4.07 0 0 1 1.81-.36h26.25a54.38 54.38 0 0 1 8.66.63 36.075 36.075 0 0 1 4.29.95l1 .31a23.83 23.83 0 0 1 3.63 1.53c1.31-8.38 0-14.08-4.54-19.25C72.75 2.43 63.74 0 52.2 0H18.71A4.79 4.79 0 0 0 14 4L0 92.46a2.87 2.87 0 0 0 2.83 3.33h20.72l5.19-32.94z"/></svg>