<svg xmlns="http://www.w3.org/2000/svg" width="24" height="24"><path fill="#383434" d="M12.721 3.306a1 1 0 0 0-1.414 0L8.394 6.219l-.64-1.176a2 2 0 0 0-3.758.953 2 2 0 0 0 1.047 1.759l1.176.639-2.913 2.913a1 1 0 0 0 0 1.414l8 8.001a1 1 0 0 0 1.415 0l8.001-8a1 1 0 0 0 0-1.415L19.055 9.64a3.5 3.5 0 0 1-4.744-4.744l-1.59-1.59zM9.893 1.89a3 3 0 0 1 4.242 0l2.901 2.902-.707.707A1.5 1.5 0 0 0 18.45 7.62l.708-.707 2.978 2.979a3 3 0 0 1 0 4.242l-8 8.001a3 3 0 0 1-4.243 0l-8.002-8a3 3 0 0 1 0-4.243l1.174-1.174A4 4 0 0 1 8.72 3.065l1.174-1.174z"/></svg>