<svg xmlns="http://www.w3.org/2000/svg" width="24" height="24"><path fill="#383434" d="M15.865 15.672a3 3 0 0 1 .806-2.566L19.39 10.3l-3.606-.555a3 3 0 0 1-2.263-1.698L12 4.783l-1.521 3.264a3 3 0 0 1-2.263 1.698L4.61 10.3l2.717 2.806a3 3 0 0 1 .807 2.566l-.62 3.825 3.026-1.684a3 3 0 0 1 2.919 0l3.025 1.684-.62-3.825zm-4.352 3.888l-4.83 2.689a1 1 0 0 1-1.473-1.034l.95-5.862a1 1 0 0 0-.27-.856l-4.063-4.195a1 1 0 0 1 .566-1.685l5.518-.849a1 1 0 0 0 .755-.566l2.427-5.208a1 1 0 0 1 1.813 0l2.427 5.208a1 1 0 0 0 .754.566l5.519.85a1 1 0 0 1 .566 1.684l-4.064 4.195a1 1 0 0 0-.269.856l.95 5.862a1 1 0 0 1-1.474 1.034l-4.83-2.69a1 1 0 0 0-.972 0z"/></svg>