<svg xmlns="http://www.w3.org/2000/svg" width="34" height="34"><g fill="none" fill-rule="evenodd"><path fill="#F6F6F6" fill-rule="nonzero" stroke="#E1E1E1" d="M17 1c8.837 0 16 7.163 16 16s-7.163 16-16 16S1 25.837 1 17 8.163 1 17 1z"/><g fill="#1B1D1E"><path d="M10.495 17.376l1.405-.351a1 1 0 0 1 1.243.97v5.153a1 1 0 0 1-1.243.97l-1.405-.351a3.293 3.293 0 0 1 0-6.39z"/><path fill-rule="nonzero" d="M11.872 17.357v1.286H9.3v-1.286c0-4.738 2.789-7.866 7.697-7.866 4.844 0 7.697 3.283 7.697 7.866v1.286h-2.572v-1.286c0-3.237-1.788-5.294-5.125-5.294-3.418 0-5.125 1.914-5.125 5.294z"/><path d="M22.1 17.025l1.405.351a3.293 3.293 0 0 1 0 6.39l-1.405.352a1 1 0 0 1-1.243-.97v-5.153a1 1 0 0 1 1.243-.97z"/></g></g></svg>