<svg xmlns="http://www.w3.org/2000/svg" width="32" height="32"><g fill="none" fill-rule="evenodd"><path fill="#252628" fill-opacity=".8" d="M32 0v25a7 7 0 0 1-7 7H0C0 14.327 14.327 0 32 0z" opacity=".8"/><path fill="#BCC7D6" d="M23.587 7.116c.218-.196.378-.138.358.128-.234 1.764-1.504 3.058-1.504 3.058l-4.805 5.216c.835-.576 6.007-4.096 6.007-4.096.243-.165.399-.145.347.046-.563 1.841-2.005 2.933-2.005 2.933l-3.972 2.965c1.696.27 2.998.003 2.998.003.147-.023.196.048.108.161 0 0 .01-.008-.07.084-1.49 1.726-4.085 1.996-5.202 2.028.964.538 2.692.494 2.692.494.15.002.204.097.12.216-1.291 1.553-4.138.856-4.995.601.982.967 2.54 1.174 2.54 1.174.15.028.187.134.09.24-1.28 1.199-3.678.92-4.873.686l2.537 1.27c.136.068.138.181.011.256 0 0 .046-.023-.046.025-1.575.829-3.087.18-3.915-.342l-.545.604S7.34 22.228 8.208 18.21c.867-4.017 6.93-5.18 8.78-7.601 0 .092-.003.183-.006.273-.001 0-.047 1.821-.955 2.697-.463.445-.744.732-.744.732-.215.241-.458.544-.126.564l.313.018c.15.008.18.093.069.189l-1.256 1.074c-.236.202-.147.571.16.655l.36.098c.144.038.153.123.022.188l-1.028.509a.374.374 0 0 0-.132.577l.499.605c.092.113.06.26-.07.327l-1.761.915 2.209-.56a.376.376 0 0 0 .178-.597l-.486-.6c-.09-.112-.056-.256.076-.32l1.482-.735a.378.378 0 0 0-.076-.71l-.628-.171c-.145-.04-.172-.149-.062-.243l1.43-1.222c.266-.228.112-.647-.247-.67l-.091.003c-.15.005-.187-.072-.08-.174l2.32-2.211 5.23-4.704z"/></g></svg>