<svg xmlns="http://www.w3.org/2000/svg" width="32" height="32"><g fill="none" fill-rule="evenodd"><path fill="#252628" fill-opacity=".8" d="M32 0v25a7 7 0 0 1-7 7H0C0 14.327 14.327 0 32 0z" opacity=".8"/><path fill="#FEC41F" d="M13.817 24.617c.274.205.512.406.717.597.206-.19.444-.392.718-.597-.101-.127-.509-.696-.336-1.35.196-.743 1.219-1.553 1.219-1.553s.582.842.344 1.586c-.115.36-.401.687-.666.928.14-.09.286-.18.44-.268.534-.307.972-.607 1.33-.893l-.054.034s-.676-.801-.482-1.436c.194-.634.713-1.108.713-1.108s.648.576.559 1.365c-.045.4-.248.698-.437.894 1.152-1.02 1.307-1.815 1.328-1.989-.033-.249-.07-.72.055-1.069.178-.496.738-.975.738-.975s.53.785.207 1.424a1.553 1.553 0 0 1-.715.692 4.395 4.395 0 0 1-.337.697c.183-.155.411-.318.642-.402.518-.191 1.269-.095 1.269-.095s-.3.886-1.028 1.064a1.696 1.696 0 0 1-1.16-.132c-.168.24-.375.502-.628.77a2.2 2.2 0 0 1 .785-.229c.7-.045 1.35.252 1.35.252s-.298.927-1.452.973c-.8.031-1.123-.273-1.245-.463a7.335 7.335 0 0 1-1.267.863 4.05 4.05 0 0 0-.692.481c.25-.082.636-.167 1.192-.189 1.153-.045 1.652.606 1.652.606s-.5.422-1.655.468c-.88.034-1.33-.397-1.496-.604a7.37 7.37 0 0 0-.541.6c.528.555.746.954.746.954l-.477.487s-.228-.437-.619-.983c-.39.546-.618.983-.618.983l-.477-.487s.218-.4.746-.955a7.37 7.37 0 0 0-.542-.599c-.165.207-.616.638-1.495.604-1.155-.046-1.655-.468-1.655-.468s.498-.651 1.651-.606c.557.022.943.107 1.193.19a4.05 4.05 0 0 0-.692-.482 7.335 7.335 0 0 1-1.267-.863c-.123.19-.445.494-1.245.463-1.154-.046-1.453-.973-1.453-.973s.65-.297 1.35-.252a2.2 2.2 0 0 1 .786.23 6.747 6.747 0 0 1-.627-.771 1.696 1.696 0 0 1-1.162.132C8.3 21.985 8 21.1 8 21.1s.75-.096 1.269.095c.23.084.46.247.642.402a4.395 4.395 0 0 1-.337-.697 1.553 1.553 0 0 1-.715-.692c-.323-.64.206-1.424.206-1.424s.56.479.739.975c.125.349.088.82.055 1.069.02.174.175.97 1.328 1.99a1.539 1.539 0 0 1-.437-.895c-.09-.79.559-1.365.559-1.365s.519.474.713 1.108c.194.635-.482 1.436-.482 1.436l-.054-.034c.358.286.795.586 1.33.893.153.088.3.178.44.268-.265-.241-.551-.567-.666-.928-.239-.744.344-1.586.344-1.586s1.023.81 1.219 1.554c.173.653-.235 1.222-.336 1.35zM24.461 6.094c.178-.159.308-.112.292.104-.191 1.431-1.228 2.482-1.228 2.482L19.6 12.913c.683-.468 4.906-3.324 4.906-3.324.198-.134.325-.118.283.037-.46 1.495-1.637 2.38-1.637 2.38l-3.243 2.407c1.384.22 2.448.002 2.448.002.12-.018.16.04.088.131 0 0 .008-.006-.057.069-1.217 1.4-3.336 1.619-4.248 1.646.787.436 2.198.4 2.198.4.123.001.167.079.098.175-1.054 1.261-3.378.695-4.078.489.802.784 2.074.952 2.074.952.121.023.153.109.072.195-1.045.973-3.002.746-3.978.556l2.071 1.03c.112.056.114.148.01.209l-.038.02c-1.286.673-2.52.146-3.197-.278l-.445.49s-1.732-2.14-1.024-5.4c.708-3.261 5.659-4.205 7.168-6.17 0 .074-.001.148-.004.222-.001 0-.038 1.478-.78 2.188-.378.362-.607.595-.607.595-.176.195-.375.44-.103.458l.255.014c.123.007.148.076.057.153l-1.026.872c-.193.164-.12.463.13.531l.295.08c.117.031.124.1.018.153l-.84.413a.303.303 0 0 0-.107.468l.406.491c.076.092.05.211-.056.266l-1.438.742 1.803-.454c.21-.074.284-.318.146-.485l-.397-.487c-.074-.09-.046-.207.062-.26l1.21-.596a.306.306 0 0 0-.062-.576l-.513-.14c-.118-.031-.14-.12-.05-.196l1.167-.992c.217-.185.091-.525-.201-.543l-.075.002c-.122.004-.152-.06-.065-.141l1.895-1.795 4.27-3.818z"/></g></svg>