<svg xmlns="http://www.w3.org/2000/svg" width="32" height="32"><g fill="none" fill-rule="evenodd"><path fill="#252628" fill-opacity=".8" d="M32 0v25a7 7 0 0 1-7 7H0C0 14.327 14.327 0 32 0z" opacity=".8"/><path fill="#B5CB50" fill-rule="nonzero" d="M21.794 7c0 1.346.019 2.694-.012 4.039-.01.455.133.563.548.547.863-.032 1.728-.01 2.67-.01a16.982 16.982 0 0 1-1.902 2.943c-1.397 1.791-2.99 3.386-4.626 4.936-.41.377-.852.715-1.32 1.01-.55.354-.946.256-1.314-.295-.2-.31-.38-.633-.54-.966-.131-.26-.228-.353-.49-.11a29.184 29.184 0 0 0-3.115 3.34A4.341 4.341 0 0 0 10.734 25c-.637-1.006-1.201-1.876-1.744-2.76-.607-1-1.192-2.01-1.801-3a1.076 1.076 0 0 1-.09-1.06c.27-.645.586-1.277 1.053-1.795 1.115-1.228 2.218-2.471 3.489-3.538.595-.5 1.289-.811 2.087-.805.425-.018.825.208 1.04.588.823 1.313 1.65 2.626 2.497 3.926.394.605.594 1.215.246 1.945a.962.962 0 0 0 .5-1.059 2.486 2.486 0 0 0-.351-.86c-.59-.982-1.17-1.97-1.766-2.942-.149-.245-.191-.407.056-.637 2.032-1.884 4-3.836 5.844-6.003z"/></g></svg>