<svg xmlns="http://www.w3.org/2000/svg" viewBox="0 0 24.788 24.788">
  <defs>
    <style>
      .cls-1 {
        fill: #475993;
      }
    </style>
  </defs>
  <path id="facebook" class="cls-1" d="M21.45,0H3.342A3.34,3.34,0,0,0,0,3.34V21.448a3.34,3.34,0,0,0,3.34,3.34h8.93l.015-8.858h-2.3a.543.543,0,0,1-.543-.541l-.011-2.855a.543.543,0,0,1,.543-.545h2.3V9.23c0-3.2,1.955-4.945,4.811-4.945h2.344a.543.543,0,0,1,.543.543V7.235a.543.543,0,0,1-.543.543H17.99c-1.553,0-1.854.738-1.854,1.821v2.388h3.413a.543.543,0,0,1,.539.607l-.338,2.855a.543.543,0,0,1-.539.479H16.151l-.015,8.858H21.45a3.34,3.34,0,0,0,3.34-3.34V3.34A3.34,3.34,0,0,0,21.45,0Z" transform="translate(-0.002)"/>
</svg>
