<svg width="320" height="320" xmlns="http://www.w3.org/2000/svg" xmlns:xlink="http://www.w3.org/1999/xlink"><defs><linearGradient x1="50%" y1="100%" x2="50%" y2="0%" id="b"><stop stop-color="#FAD961" offset="0%"/><stop stop-color="#FB9E4A" offset="100%"/></linearGradient><circle id="a" cx="229.677" cy="175.677" r="127.677"/><linearGradient x1="50%" y1="0%" x2="50%" y2="100%" id="d"><stop stop-color="#FAD961" offset="0%"/><stop stop-color="#FB9E4A" offset="100%"/></linearGradient></defs><g fill="none" fill-rule="evenodd"><g transform="translate(-69.677 -15.677)"><mask id="c" fill="#fff"><use xlink:href="#a"/></mask><use fill="url(#b)" xlink:href="#a"/><path d="M339.596 317.377c29.383 0 43.54-48.876 81.89-48.876 34.724 0 46.327-92.824-32.66-92.824-25.424 0-42.166 28.073-66.274 28.073-29.383 0-24.022 29.496-58.445 29.496-32 0-44.244 43.042 0 43.042 42.474 0 42.474 41.089 75.489 41.089z" fill="#FAD45F" fill-rule="nonzero" mask="url(#c)"/><path d="M122.68 143.95c47.978 0 52.775-33.774 86.633-33.774 50.73 0 38.36-26.452 66.438-26.452 23.933 0 23.933-43.373 0-43.373-19.776 0-67.969-39.548-103.028-39.548-22.446 0-37.227 24.786-58.51 24.786-25.942 0-57.428 26.04-87.82 26.04-28.252 0-39.062 38.001 0 38.001 37.5 0 37.5 54.32 96.286 54.32z" fill="#FBA04B" fill-rule="nonzero" mask="url(#c)"/></g><g fill="#FFF"><path d="M76.574 260.657c0-1.088-.861-1.97-1.923-1.97-1.063 0-1.924.882-1.924 1.97s.861 1.97 1.924 1.97c1.062 0 1.923-.882 1.923-1.97M53.807 257.576c-.708 0-1.282.588-1.282 1.313s.574 1.313 1.282 1.313c.708 0 1.283-.588 1.283-1.313s-.575-1.313-1.283-1.313zM223.074 175.937c-1.77 0-3.205 1.47-3.205 3.282 0 1.813 1.435 3.282 3.205 3.282s3.206-1.469 3.206-3.282-1.436-3.282-3.206-3.282zM109.446 123.183a1.213 1.213 0 1 0 1.715 1.715 1.213 1.213 0 0 0-1.715-1.715zM261.949 193.185a3.339 3.339 0 0 0 0 4.642 3.153 3.153 0 0 0 4.533 0 3.34 3.34 0 0 0 0-4.642 3.153 3.153 0 0 0-4.533 0zM253.58 165.819c-.5.512-.5 1.343 0 1.856.5.512 1.313.512 1.813 0a1.335 1.335 0 0 0 0-1.857 1.26 1.26 0 0 0-1.813 0zM193.951 161.666c-.5-.512-.5-1.344 0-1.856a1.26 1.26 0 0 1 1.814 0c.5.512.5 1.344 0 1.856-.501.513-1.313.513-1.814 0zM164.737 148.922c-.708 0-1.282.588-1.282 1.313s.574 1.313 1.282 1.313c.708 0 1.282-.588 1.282-1.313s-.574-1.313-1.282-1.313zM141.658 160.182c-.708 0-1.282.588-1.282 1.313s.574 1.313 1.282 1.313c.708 0 1.282-.588 1.282-1.313s-.574-1.313-1.282-1.313zM103.691 198.236a3.638 3.638 0 0 1 5.143 0 3.636 3.636 0 1 1-5.143 0M157.576 265.454a1.212 1.212 0 1 1 2.424 0 1.212 1.212 0 0 1-2.424 0M172.121 271.92a1.212 1.212 0 1 1 2.425 0 1.212 1.212 0 0 1-2.425 0M271.87 150.659a1.212 1.212 0 1 1 1.715 1.714 1.212 1.212 0 0 1-1.715-1.714M106.71 69.62c-1.77 0-3.205 1.47-3.205 3.282 0 1.813 1.435 3.282 3.206 3.282 1.77 0 3.205-1.469 3.205-3.282s-1.435-3.282-3.205-3.282zm38.875-15.325a3.339 3.339 0 0 0 0 4.642 3.153 3.153 0 0 0 4.534 0 3.34 3.34 0 0 0 0-4.642 3.153 3.153 0 0 0-4.534 0zm-8.369 34.09c-.5.513-.5 1.344 0 1.857.501.512 1.313.512 1.813 0a1.335 1.335 0 0 0 0-1.857 1.26 1.26 0 0 0-1.813 0zM77.588 96.25c.5.513 1.312.513 1.813 0 .5-.513.501-1.344 0-1.856a1.26 1.26 0 0 0-1.813 0c-.5.512-.5 1.343 0 1.856zm77.919 7.64a1.212 1.212 0 1 0 1.713 1.714 1.212 1.212 0 0 0-1.713-1.714z"/></g><path d="M71.92 232.727c.11 1.035.169 2.117.185 3.233.168-.802.323-1.62.469-2.448-.218-.263-.433-.521-.655-.785" fill="#E44B03"/><g transform="rotate(120 60.102 120.033)" fill-rule="nonzero"><path d="M1 0h30a1 1 0 0 1 1 1v42a1 1 0 0 1-1 1H1a1 1 0 0 1-1-1V1a1 1 0 0 1 1-1z" fill="#AD3700"/><path d="M1 0h26a1 1 0 0 1 1 1v42a1 1 0 0 1-1 1H1a1 1 0 0 1-1-1V1a1 1 0 0 1 1-1z" fill="#E44B03"/><rect fill="#AD3700" x="3" y="5" width="15" height="2" rx="1"/><rect fill="#AD3700" x="3" y="9" width="9" height="2" rx="1"/><rect fill="#AD3700" x="3" y="39" width="5" height="2" rx="1"/><path fill="#E8E6DD" d="M28 3h2v38h-2z"/></g><path d="M157.29 33.594C133.996 16.802 133.903 8.94 114.445 7.778c-12.783 0-16.067 6.337-7.922 9.124-4.92 4.446-6.554 6.42-1.191 8.294 0 0-3.905 4.112-.96 5.73 2.946 1.618 6.322 1.963 6.322 1.963s-5.163 6.107 9.137 7.671c-.994 2.542.595 5.866 7.348 4.888.993 1.955 2.98 8.016 12.711 6.452 3.377 2.15-.044 5.6 4.523 5.405 3.774 1.76 6.297 2.209 8.71.03 2.152.922 11.546 5.344 13.933 3.193 8.514-12.115-5.259-23.686-9.766-26.934zM202.974 112.063c-1.04 2.12-2.564 3.686-4.307 4.903.898 2.672 1.976 4.586 3.41 4.991 2.348-.113 3.436-2.398 4.283-5.098.782 4.506 1.74 7.838 4.436 7.57 2.849-.282 2.985-3.237 3.366-6.334 2.015 2.924 3.918 6.318 7.037 6.334 1.96.011 2.262-2.827 2.448-5.716 2.166 1.292 4.237 4.51 6.73 5.716.521.12.857-.537 1.072-1.699 1.641 1.252 2.356.452 2.6-1.39 2.92 1.299 3.73-.075 3.366-2.937 3.857.833 3.49-2.05 1.53-6.334 1.367.327 2.924 1.295 3.055.57-7.757-6.367-16.197-13.412-23.869-18.195-3.977 6.515-8.698 9.255-13.57 9.51-.168 3.156-.557 6.011-1.587 8.11zM181.81 114.264c.962-.546 3.596-2.28 7.9-5.2 2.447-1.61 5.027-5.198 5.623-8.09-3.004-1.767-6.43-3.858-9.05-6.53-.58 4.253-1.51 7.705-2.795 10.354-.982 2.027-2.709 3.711-5.202 5.949s2.08 4.335 3.523 3.517zM212.78 53.545c.728-.306 6.928-1.456 10.6-10.45 3.672-8.994 8.307-18.203 14.658-21.344 6.351-3.14 25.936-18.434 50.104-11.789 24.168 6.647 12.167 9.994 12.167 9.994s1.222 4.47-6.257 3.66c0 0 1.128 4.738-4.35 5.322-.3 1.756-.083 3.775-4.003 3.677-.716 1.738-3.244 3.425-5.575 3.276-2.693.957-7.7-.764-8.522-.543 0 0-4.229 1.373-5.555 1.624-1.326.25-5.916-.484-7.088-1.598-.66 1.125-2.631 1.433-2.631 1.433s-1.222 1.616-2.463 1.828c-.403 1.006-2.336 1.769-3.264 1.25-.29 1.779-.44 2.906-3.053 3.507.824 1.508-1.3 3.298-3.958 4.036.56 1.863-2.727 4.3-4.624 5.4.732 1.784 1.36 4.556-1.873 6.38-.087 2.276.23 3.544-2.574 5.172-.472 2.333-.11 2.467-2.92 3.831-.442 2.405-.458 8.006-4.545 7.864-4.088-.141-13.22 11.549-13.22 11.549s-2.754-6.498-5.806-10.639c-3.052-4.14.676-18.289-.743-23.984 0 0 4.766.851 5.495.544z" fill="#C4C1AD"/><path d="M209.963 47.883a424.96 424.96 0 0 0-8.727-1.33c-8.756-3.684-17.135-4.808-23.984-4.159-3.9-2.836-13.248-9.727-23.095-15.19-14.852-8.238-22.116-19.426-38.565-19.426-6.223 0 10.375 2.513 17.434 8.215 6.929 5.594 8.961 6.961 16.071 16.697 1.996 2.732 6.23 4.05 8.522 6.22 2.474 2.34 3.917 4.741 5.007 7.642.392 1.042-1.31 1.042-2.66 2.805-3.18 7.77 7.554 22.394 16.898 33.405 4.883 5.754 7.457 12.473 8.804 13.77 3.924 3.777 10.71 7.224 11.55 7.6-.071 1.236-.274 3.775-.423 4.837-.524 3.756-7.34 8.77-8.872 10.252-1.532 1.482 1.484 3.417 3.696 2.922 2.213-.494 8.576-2.537 11.128-6.323 2.553-3.785 3.944-7.085 4.11-10.201 4.863-.252 8.416-2.658 12.385-9.087 7.656 4.719 15.373 10.544 23.114 16.828l.83.674c-3.611-8.776-11.383-14.738-23.79-22.72 0 0-.121-1.238-.396-3.298-.496-3.713-1.494-10.103-3.193-16.791 1.233 2.84 5.092 2.759 7.225-8.238 2.134-10.997 4.008-2.017 5.75-9.898s10.44-8.546 12.384-16.835c1.944-8.289 8.35-9.425 11.842-13.546 17.395-20.532 51.725-6.731 47.529-8.285-9.174-3.396-21.474-10.758-43.134-2.855-2.57.937-21.426 11.219-23.292 12.566-10.27 7.746-19.41 24.526-24.148 23.749z" fill="#E8E6D2"/><path d="M175.28 77.774c8.988-2.093 10.623-9.951 9.903-18.589-.865-10.38-12.6-13.89-20.768-5.961-3.091-2.646-4.637-3.091-4.637-1.335 0 10.306 13.898 26.159 15.502 25.885z" fill="#FFF"/><path d="M166.807 69.81c-.03.082-.061.163-.089.25-.943 3.583.656 6.874 3.197 8.829a18.735 18.735 0 0 1 .723-3.378c.79-2.534 1.906-4.305 2.473-6.86-3.94-1.66-5.59-.773-6.304 1.159z" fill="#F27B01"/><path d="M177.438 58.831c-6.612-4.046-7.913 4.757-5.264 6.357 2.649 1.601 11.875-2.31 5.264-6.357z" fill="#1C3251"/><path d="M175.888 61.111c.307 0 .556-.25.556-.555a.556.556 0 1 0-.557.556" fill="#FFF"/><path d="M161.125 59.46c.114-2.913 4.496 3.81 3.93 5.777-.565 1.967-4.044-2.864-3.93-5.777z" fill="#1C3251"/><path d="M162.308 60.935c.113-.032.152-.243.087-.468-.065-.227-.209-.383-.322-.351-.113.032-.152.242-.087.468.064.226.209.383.322.351" fill="#FFF"/><path d="M186.538 118.889c-1.038 0-4.024-.469-5.747-1.964-.674-.585-1.615-.61-2.78.274.593-1.624.98-2.612 1.165-2.963.184-.351.522-.768 1.014-1.25.934-.739-1.521-3.015-2.671-1.903-.273.229-.729.572-1.059.643-2.57.551-9.228-3.23-11.127-3.872-1.524-.526-5.523 1.787-7.066 3.435-1.543 1.648-.265 2.234.903 1.849-1.3 1.292.134 3.549 1.275 2.073.807-1.045 3.112-3.213 4.763-3.776.683-.233 1.014.186 1.614.646-2.356 1.404-5.11 4.044-5.64 4.59-1.42 1.466.784 3.136 2.002 1.793 1.218-1.342 4.594-3.917 5.64-4.69.413-.273 3.099 1.34 8.057 4.84-.294.388-1.991 2.754-2.535 3.502-.96 1.72.995 1.627 1.3 1.59-.33.352-.647.879-.952 1.582-.456 1.054 1.197 1.745 1.737 1.023.49-.704 3.172-3.999 5.375-4.882 1.127-.452 2.388.9 2.63 1.122-1.751.964-3.857 4.558-4.615 5.885-.758 1.328 1.483 2.374 2.262.698.78-1.675 3.076-6.19 6.803-4.605-.325-1.117-.168-2.15.471-3.1l1.371-1.168c.667-.696-.869-3.203-2.219-2.605l-1.971 1.233z" fill="#F27B01"/><path d="M155.333 113.333c.857-.667 1.777-1.089 2.761-1.264.967-.257.636-1.228-.448-.886-1.155.339-1.926 1.056-2.313 2.15zM172 124.444c.857-.667 1.777-1.089 2.76-1.264.968-.256.637-1.228-.447-.886-1.156.339-1.927 1.056-2.313 2.15zM156.444 117.778c.947-1.049 1.869-1.756 2.766-2.122 1.066-.328.499-1.58-.609-1.106-1.134.672-1.853 1.748-2.157 3.228zM173.111 127.778c.947-1.049 1.869-1.756 2.766-2.122 1.066-.328.498-1.58-.61-1.106-1.133.672-1.852 1.748-2.156 3.228zM158.667 121.111c.946-1.048 1.868-1.755 2.765-2.122 1.066-.328.499-1.58-.609-1.105-1.134.671-1.853 1.747-2.156 3.227zM179.778 132.222c.629-1.27.99-2.055 1.083-2.357.14-.453-.279-1.592-.604-.549-.217.696-.377 1.665-.48 2.906z" fill="#E8E6D2"/><g transform="translate(32.323 134.141)"><path d="M100.499 64.326C97.172 54.92 88.9 46.849 87.894 30.102 86.391 5.09 72.72-1.086 55.366.148 30.734 1.9 22.63 15.2 20.1 31.299 19.734 33.627 0 44.397 0 78.02c0 30.238 15.511 50.48 25.766 50.48 79.603 0 83.527-39.313 74.733-64.173z" fill="#F27B01"/><path d="M36.758 51.475c3.91 7.274 6.987 6.51 3.91 15.692-16.888 15.76-25.58 13.19-25.58 37.61 0 24.421 34.772 20.365 61.546 8.455 26.773-11.91 21.472-29.582-.896-35.846-15.175-4.25-11.557-10.646-5.973-14.976 13.772-10.678 18.495-31.442-4.732-49.157 9.684 16.136-13.652 37.1-22.273 22.334-6.275 1.784-8.787 10.706-6.002 15.888z" fill="#E44B03"/><path d="M68.436 95.552c.06.088-12.569-8.21-22.124-20.04-5.024-6.218-24.07 42.543-12.035 54.065 8.023 7.682 21.947 13.96 41.772 18.836 5.467 0 8.485-39.908-7.613-52.86z" fill="#355368"/><ellipse fill="#182933" fill-rule="nonzero" transform="rotate(-45 63.598 81.925)" cx="63.598" cy="81.925" rx="7.002" ry="8.666"/><path d="M42.767 54.267c3.168 5.259 2.961 14.584 1.944 21.026-.014.093-.027.19-.042.281 2.154 4.658 14.328 20.5 22.25 21.059-.096-.136-.183-.268-.277-.403-9.307-13.408-7.08-21.04-7.253-28.527-.15-6.427-1.211-9.237 5.06-11.02 13.992-3.979 13.749-21.993 4.07-38.131a60.243 60.243 0 0 0-4.424-6.404c-.03.188-.064.372-.095.558-.1.59-.205 1.173-.32 1.743-2.47 12.304-8.425 19.939-15.817 25.647-1.638-4.335-5.05-6.193-7.926-2.784-.076.09-.143.18-.214.27-3.936 5.017-.432 10.914 3.044 16.685" fill="#FFE3B0"/><g transform="rotate(-75 76.841 25.085)" fill-rule="nonzero"><path d="M20.047 7.031c.845-.09 1.36-.116 2.654-.346C17.044-5.71 11.328 1.321 5.556 27.778h2.853C13.047 7.953 16.926 1.038 20.047 7.03z" fill="#182933"/><ellipse fill="#182933" cx="9.444" cy="38.333" rx="9.444" ry="11.667"/><ellipse fill="#1C3251" cx="7.778" cy="38.889" rx="6.667" ry="8.889"/><ellipse fill="#496B83" cx="5" cy="38.889" rx="2.778" ry="4.444"/></g><path d="M65.61 30.339c-1.5.597-2.514 1.464-2.264 1.94.249.474 1.666.376 3.165-.22 1.5-.597 2.514-1.465 2.264-1.94-.248-.475-1.666-.377-3.166.22" fill="#355368"/><path d="M65.456 26.176c1.25-.632 2.517-1.171 3.908-1.835-1.61-.188-3.215.235-4.584.899-1.354.688-2.552 1.665-3.123 2.922 1.368-.697 2.534-1.376 3.799-1.986" fill="#F27B01"/></g><path d="M113.163 232.354l1.672-1.464c5.497 6.275 7.832 13.682 6.984 22.148-.707 7.063-1.6 10.7-3.396 14.966-.24.572-1.11 2.567-1.232 2.854a71.675 71.675 0 0 0-1.348 3.352c-2.787 7.496-2.6 9.897 1.224 12.532l-1.26 1.83c-4.878-3.361-5.147-6.8-2.047-15.136a73.845 73.845 0 0 1 1.388-3.453c.128-.298.992-2.284 1.227-2.841 1.707-4.055 2.547-7.477 3.233-14.326.787-7.856-1.355-14.652-6.445-20.462z" fill="#182933" fill-rule="nonzero"/><g transform="rotate(45 -144.447 300.442)"><path d="M13.954.314l-9.5.59C1.95 1.062 0 3.128 0 5.624v40.754c0 2.496 1.95 4.562 4.454 4.718l9.5.591c2.618.163 4.873-1.817 5.037-4.423.006-.098.009-.197.009-.295V5.032c0-2.61-2.127-4.727-4.75-4.727-.099 0-.198.003-.296.009z" fill="#182933" fill-rule="nonzero"/><ellipse fill="url(#d)" cx="4.75" cy="46.091" rx="1.188" ry="2.364"/><path d="M4.925 46.308c.023-.05.07-.042.09 0a.258.258 0 0 1 0 .19l-.19.418v.505c0 .084-.032.147-.075.147s-.074-.063-.074-.147v-.505l-.191-.4a.274.274 0 0 1 0-.193c.02-.05.064-.054.084-.015.02.04.176.367.181.375l.175-.375zm.27-1.399c.039 0 .075.073.075.151v1.92c0 .077-.034.149-.076.149-.041 0-.071-.072-.071-.15v-1.558l-.302.708c-.044.086-.095.088-.145 0l-.297-.708v1.559c0 .079-.032.149-.074.149-.041 0-.075-.07-.075-.15v-1.933c0-.077.035-.137.075-.137.033 0 .054.025.074.086l.371.864.373-.864c.02-.058.04-.086.071-.086z" fill="#BE5B04" fill-rule="nonzero"/><g fill-rule="nonzero"><path d="M2.097 5.827L13.16 4.826a1 1 0 0 1 1.09.996v34.542a1 1 0 0 1-1 1H2.187a1 1 0 0 1-1-1V6.823a1 1 0 0 1 .91-.996z" fill="#FFF"/><path d="M3.282 8.188l7.491-.698a1 1 0 0 1 1.093.996v.355a1 1 0 0 1-.907.996l-7.491.698a1 1 0 0 1-1.093-.996v-.355a1 1 0 0 1 .907-.996zm.011 4.737l5.125-.422A1 1 0 0 1 9.5 13.5v.357a1 1 0 0 1-.918.996l-5.125.422a1 1 0 0 1-1.082-.997v-.357a1 1 0 0 1 .918-.996zm.017 4.741l6.256-.41a1 1 0 0 1 1.065.998v.36a1 1 0 0 1-.935.997l-6.256.41a1 1 0 0 1-1.065-.998v-.36a1 1 0 0 1 .935-.997zm.027 4.752l7.525-.29a1 1 0 0 1 1.039 1v.361a1 1 0 0 1-.962 1l-7.526.29a1 1 0 0 1-1.038-1v-.362a1 1 0 0 1 .962-1zm.038 4.764h6.312a1 1 0 0 1 1 1v.363a1 1 0 0 1-1 1H3.375a1 1 0 0 1-1-1v-.363a1 1 0 0 1 1-1zm0 4.727h7.5a1 1 0 0 1 1 1v.364a1 1 0 0 1-1 1h-7.5a1 1 0 0 1-1-1v-.364a1 1 0 0 1 1-1zm0 4.727h2.75a1 1 0 0 1 1 1V38a1 1 0 0 1-1 1h-2.75a1 1 0 0 1-1-1v-.364a1 1 0 0 1 1-1z" fill="#E8E6DD"/></g><rect fill="#39474F" fill-rule="nonzero" x="15.438" y="8.273" width="1.188" height="5.909" rx=".5"/><rect fill="#39474F" fill-rule="nonzero" x="15.438" y="4.727" width="1.188" height="2.364" rx=".5"/></g><path d="M142.782 253.164l1.282-4.025c1.083-3.65-1.757-14.497 0-17.807.168-.317 2.021-3.709 2.842-2.5.82 1.207.002 6.364.82 7.11 1.124 1.025 2.228-.109 2.504-.553a54.566 54.566 0 0 1 9.928-11.858l3.864-3.462c3.107-2.539 4.387-.914 1.579 1.488l-2.388 3.465-1.256 4.158c1.07 2.116 1.32 6.212.747 12.29-4.683 5.937-7.805 11.497-9.365 16.68l-.047-.022c-4.21 9.953-17.103 49.784-24.79 45.708C104.657 291.19 75.1 250.769 75.1 250.769c-2.08-3.035-2.844-5.956-2.683-8.582.184-3.017 1.594-5.643 3.725-7.668 4.766-4.457 12.912-5.36 17.42.675 0 0 5.028 7.861 12.047 17.8 3.831 5.426 16.515 21.306 21.157 27.179 4.938-8.777 8.215-8.537 16.01-27.012l.006.003z" fill="#FFE3B0"/><path d="M146.182 286.984h-2.223c0-8.153-1.388-11.908-4.87-16.268l-.786-.975c-3.331-4.136-4.57-7.113-4.57-13.2 0-10.353 5.356-20.09 7.797-22.4l1.465 1.377c-3.618 3.828-7.04 10.95-7.04 21.023 0 5.53 1.044 8.037 4.079 11.806-.037-.045.61.755.791.983 3.789 4.743 5.357 8.983 5.357 17.654z" fill="#182933" fill-rule="nonzero"/><path d="M169.733 156.284l-.852-.694-2.878 1.662.186 1.104c.072.43.098.734.076.912-.022.178-.139.328-.352.45a.777.777 0 0 1-.592.079.7.7 0 0 1-.467-.33 1.157 1.157 0 0 1-.125-.327 7.03 7.03 0 0 1-.089-.522l-.843-5.644-.089-.583a2.778 2.778 0 0 1-.034-.595c.011-.17.062-.33.152-.484.09-.152.233-.286.43-.399.2-.115.388-.174.565-.175a1.11 1.11 0 0 1 .492.105c.151.072.294.16.43.264.135.105.312.246.531.424l4.488 3.502c.346.264.564.475.655.632.095.165.113.355.056.57a.78.78 0 0 1-.377.492.741.741 0 0 1-.325.107.685.685 0 0 1-.297-.047 1.745 1.745 0 0 1-.36-.217 21.571 21.571 0 0 1-.381-.286zm-3.975-.326l2.115-1.222-2.754-2.306.639 3.528zM175.81 175.763c-.132.23-.332.445-.6.647a3.102 3.102 0 0 1-.987.478 3.142 3.142 0 0 1-1.291.09c-.47-.056-.955-.23-1.457-.519a5.316 5.316 0 0 1-.974-.707 3.364 3.364 0 0 1-.654-.826 3.303 3.303 0 0 1-.353-1.007 4.132 4.132 0 0 1-.048-1.04c.028-.358.1-.715.216-1.072.116-.357.277-.714.484-1.071.335-.58.719-1.05 1.153-1.412a3.838 3.838 0 0 1 1.404-.759 3.652 3.652 0 0 1 1.536-.106 4.135 4.135 0 0 1 1.5.525c.583.337 1.035.753 1.357 1.249.32.495.504.984.549 1.467.044.482-.021.876-.197 1.18a.73.73 0 0 1-.433.341.648.648 0 0 1-.538-.055c-.187-.108-.301-.233-.344-.376-.042-.142-.058-.354-.048-.637.016-.467-.053-.863-.208-1.189-.155-.325-.421-.597-.798-.814-.6-.347-1.21-.395-1.828-.144-.618.25-1.17.794-1.654 1.633-.324.56-.514 1.072-.572 1.535-.057.463.005.87.188 1.22.182.35.467.636.854.86.42.242.834.342 1.244.302.41-.04.806-.22 1.186-.538.172-.154.338-.265.499-.331.16-.067.343-.042.546.076.174.1.288.247.342.44a.7.7 0 0 1-.074.56zM163.373 189.034l-2.24 1.293c-.324.187-.597.248-.819.183-.222-.065-.424-.256-.607-.573l-3.182-5.51c-.186-.324-.25-.597-.19-.82.06-.224.248-.427.565-.61l2.375-1.372a6.4 6.4 0 0 1 .948-.46 2.24 2.24 0 0 1 .834-.148 2.09 2.09 0 0 1 1.295.475c.18.152.333.334.456.547.423.734.367 1.482-.17 2.246 1.14-.25 1.966.069 2.478.956.237.41.345.84.325 1.289-.02.45-.164.856-.43 1.218a3.49 3.49 0 0 1-.656.642c-.268.206-.596.42-.982.644zm-1.99-3.192l-1.545.892 1.236 2.14 1.595-.92c1.003-.58 1.296-1.231.879-1.954-.214-.37-.499-.564-.855-.58-.357-.017-.793.124-1.31.422zm-3.254-2.068l1.094 1.895 1.36-.785c.37-.214.636-.414.797-.6a.945.945 0 0 0 .232-.667 1.04 1.04 0 0 0-.147-.542c-.213-.37-.487-.54-.82-.51-.334.03-.77.201-1.31.513l-1.206.696z" fill="#AD3700"/><g><path d="M76.81 90.123c-2.912-3.353-3.109-8.226-.757-11.8a10.94 10.94 0 0 0-6.009 2.806c-4.572 4.185-4.988 11.366-.93 16.04 4.058 4.672 11.054 5.069 15.626.883a11.423 11.423 0 0 0 3.401-5.808 9.212 9.212 0 0 1-11.33-2.12" fill="#FFF"/><path d="M70.04 82.364c-3.691 4.195-4.061 10.255 0 14.887 4.062 4.633 12.676 3.225 15.677-.898-6.766 3.179-19.819-1.006-15.676-13.99z" fill="#C4C1AD" opacity=".2"/></g></g></svg>