<svg version="1.1" id="Layer_1" xmlns="http://www.w3.org/2000/svg" x="0" y="0" viewBox="0 0 320 320" xml:space="preserve"><style>.st3{fill:#ffe4b3}.st4{fill:#fff}.st10,.st13,.st4,.st6,.st9{fill-rule:evenodd;clip-rule:evenodd}.st6{stroke:#fff;fill:#f27b01}.st10,.st13,.st9{fill:#ffe3b0}.st10,.st13{fill:#f27b01}.st13{fill:#355368}.st15{fill:#182933}.st20{fill:#39474f}</style><g id="Mask_1_"><linearGradient id="SVGID_1_" gradientUnits="userSpaceOnUse" x1="32.375" y1="229.077" x2="32.375" y2="230.077" gradientTransform="matrix(255.3535 0 0 -255.3535 -8106.99 58783.273)"><stop offset="0" stop-color="#fad961"/><stop offset="1" stop-color="#fb9e4a"/></linearGradient><circle cx="160" cy="160" r="127.7" fill-rule="evenodd" clip-rule="evenodd" fill="url(#SVGID_1_)"/></g><linearGradient id="SVGID_2_" gradientUnits="userSpaceOnUse" x1="161.441" y1="287.677" x2="161.441" y2="95.323"><stop offset="0" stop-color="#fad15e"/><stop offset=".979" stop-color="#fad45f"/></linearGradient><path d="M271.5 138.6c-3.6-4.3-6.2-9.7-9.2-18.1-.3-.9-.7-1.9-1.1-3.2-.1-.3-.5-1.5-.6-1.6-.2-.6-.4-1.1-.5-1.6-4.8-13.8-8.3-18.8-15-18.8-4.3 0-7.9 3.5-11.3 10.4-2.7 5.4-4.6 11-8.4 24-.1.2-.1.2-.1.5-3.9 13.3-5.9 19-8.7 24.6-3.8 7.6-8 11.7-13.4 11.7-6.9 0-11.6-2.4-19.1-8.4-.4-.4-2.1-1.7-2-1.6-8.7-6.9-13.8-9.5-21.9-9.5-4.7 0-7.7 3.5-11.9 12.6-.3.6-2.4 5.4-3.1 6.8-3 6.4-5.6 10.7-9.1 14-4.3 4.3-9.6 6.5-16.2 6.5-6.1 0-10.6 1.9-14.3 5.7-2.9 2.9-4.8 6.2-8.1 12.9-.1.3-.6 1.2-.6 1.1-3.2 6.7-5 9.8-7.8 12.7-3.6 3.9-8.1 5.9-13.8 5.9-6.9 0-12.5-2.3-17.4-6.7-3.8-3.4-6.8-7.6-10.7-14.3-.6-1-2.8-4.9-3.3-5.8-3.2-5.6-5.9-9.3-8.7-11.5C47.6 244.6 98.8 287.7 160 287.7c70.5 0 127.7-57.2 127.7-127.7 0-4.4-.2-8.8-.7-13.1-6.4-.6-11.4-3.5-15.5-8.3z" fill-rule="evenodd" clip-rule="evenodd" fill="url(#SVGID_2_)"/><path d="M35.2 187l-.6-2.8 2.2 1.8c2.7 2.2 5.4 5.7 8.9 11.8.3.5.9 1.6 1.6 2.8.7 1.2 1.4 2.5 1.7 3 4.1 7 7 10.9 10.5 14.1 4.8 4.3 10.3 6.4 16.7 6.4 5.4 0 9.5-1.8 13.1-5.6 2.5-2.7 4.2-5.5 7.6-12.4l.4.2-.3-.3.6-1.1c3.1-6.4 5.1-10 8.2-13.2 4-4 8.9-6 15-6s11.2-2 15.5-6.2c3.2-3.1 5.7-7.1 8.9-13.7.4-1 1.6-3.4 2.3-5.1.4-.8.7-1.5.8-1.7 4-8.5 7.2-13.2 12.8-13.2 8.7 0 14.1 3 22.1 9.4l.4.4c.1.1 1.5 1.2 2 1.6 7.8 6.2 12.3 8.2 18.5 8.2 4.8 0 8.7-3.5 12.5-11.1 2.9-5.8 4.9-12 8.6-24.5l.1-.5c3.7-12.4 5.7-18.5 8.5-24.2 3.6-7.4 7.6-11 12.2-11 7.8 0 11.3 6.3 15.9 19.5l1.1 3.2c.5 1.3.8 2.3 1.1 3.2 3.1 8.8 5.6 13.8 9.1 17.8 5.7 6.6 13.6 7.8 13.6 7.8l.2 2.1c-6.1-.8-11.2-3.6-15.3-8.6-3.5-4.2-6.2-9.4-9.4-18.4-.3-.9-.7-1.9-1.1-3.2-.1-.3-.5-1.5-.6-1.6l-.5-1.6c-4.9-14-8.2-18.3-14.1-18.3-3.7 0-7.2 3.2-10.4 9.8-2.8 5.6-4.7 11.6-8.4 23.9l-.1.5c-3.8 12.6-5.8 18.9-8.7 24.8-4.1 8.4-8.7 12.2-14.3 12.2-7.6 0-12.6-2.9-19.8-8.6-1-.8-1.6-1.3-1.9-1.6-9-7.2-13.8-9.3-21.3-9.3-4.1 0-6.9 3-11 12-.1.2-.4.9-.8 1.7-.8 1.7-1.9 4.2-2.3 5.1-3.2 6.9-5.9 11-9.3 14.3-4.7 4.6-10.2 6.8-16.9 6.8-5.6 0-9.9 1.7-13.6 5.4-2.7 2.7-4.5 5.6-7.9 12.6l-.2.5c-.1.2-.2.5-.3.6-3.1 6.4-5 9.8-7.9 12.9-3.9 4.4-8.7 6.4-14.6 6.4-6.9 0-12.9-2.3-18.1-6.9-3.7-3.3-6.8-7.4-10.9-14.6-.3-.5-1-1.8-1.7-3s-1.3-2.3-1.6-2.8c-2.4-4-4.3-6.9-6.1-8.9l-2.7-2.8z" fill="#f27b01"/><path class="st3" d="M245.4 65.1v189.8l1-.9V66zM202.4 280.5l1-.4V39.9l-1-.4zM159.4 32.3h1v255.4h-1zM117.4 280.4l1 .4V39.2l-1 .4zM74.4 254.8l1 .9V64.3l-1 .9z"/><g id="Group-2" transform="translate(197.737 62.06)"><path id="Fill-58" class="st4" d="M10.5 11.8C7.6 8.4 7.4 3.6 9.7 0c-2.2.3-4.3 1.2-6 2.8-4.6 4.2-5 11.4-.9 16s11.1 5.1 15.6.9c1.7-1.6 2.9-3.6 3.4-5.8-3.7 2-8.4 1.3-11.3-2.1"/><path id="Fill-60" d="M3.7 4c-3.7 4.2-4 10.3 0 14.9 4.1 4.6 12.7 3.2 15.7-.9C12.6 21.2-.4 17 3.7 4z" opacity=".2" fill-rule="evenodd" clip-rule="evenodd" fill="#c4c1ad"/></g><g id="stars" transform="rotate(180 124.899 114.106)"><path id="Fill-8" class="st4" d="M137.9 125.8c-.7 0-1.2-.6-1.2-1.2 0-.7.5-1.2 1.2-1.2s1.2.6 1.2 1.2c.1.6-.5 1.2-1.2 1.2z"/><path id="Fill-12" class="st4" d="M178.1 108.4c-.3-.3-.3-.8 0-1.2.3-.3.8-.3 1.1 0 .3.3.3.8 0 1.2-.3.3-.8.3-1.1 0z"/><path id="Fill-17" class="st4" d="M170.4 140c-.5-.5-.5-1.3 0-1.9.5-.5 1.3-.5 1.8 0s.5 1.3 0 1.9c-.4.5-1.3.5-1.8 0z"/><path id="Fill-19" class="st4" d="M110.8 157.1c-.5.5-.5 1.3 0 1.9.5.5 1.3.5 1.8 0s.5-1.3 0-1.9c-.5-.6-1.3-.6-1.8 0z"/><path id="Fill-21" class="st4" d="M81.4 137.1c-.7 0-1.3-.6-1.3-1.3s.6-1.3 1.3-1.3c.7 0 1.3.6 1.3 1.3s-.6 1.3-1.3 1.3z"/><path id="Fill-21-Copy" class="st4" d="M99.2 142.8c-.7 0-1.3-.6-1.3-1.3s.6-1.3 1.3-1.3c.7 0 1.3.6 1.3 1.3s-.6 1.3-1.3 1.3z"/><path id="Fill-21-Copy-2" class="st4" d="M76.5 170.8c-1.1 0-2-.9-2-2s.9-2 2-2 2 .9 2 2-.9 2-2 2z"/><path id="Fill-23" class="st4" d="M59.1 126.3c-.7 0-1.3-.6-1.3-1.3 0-.7.6-1.3 1.3-1.3.7 0 1.3.6 1.3 1.3-.1.7-.6 1.3-1.3 1.3z"/><path id="Fill-23-Copy" class="st6" d="M3.3 136.7c-2.1 0-3.8-1.7-3.8-3.8 0-2.1 1.7-3.8 3.8-3.8s3.8 1.7 3.8 3.8c.1 2.1-1.6 3.8-3.8 3.8z"/><path id="Fill-23-Copy-2" class="st6" d="M47.8 64.8c-2.1 0-3.8-1.7-3.8-3.8 0-2.1 1.7-3.8 3.8-3.8 2.1 0 3.8 1.7 3.8 3.8 0 2.1-1.7 3.8-3.8 3.8z"/><path id="Fill-23-Copy-3" class="st6" d="M90 84.7c-2.1 0-3.8-1.7-3.8-3.8 0-2.1 1.7-3.8 3.8-3.8s3.8 1.7 3.8 3.8c0 2.1-1.7 3.8-3.8 3.8z"/><path id="Fill-23-Copy-4" class="st6" d="M174.4 7.2c-2.1 0-3.8-1.7-3.8-3.8 0-2.1 1.7-3.8 3.8-3.8s3.8 1.7 3.8 3.8c.1 2-1.6 3.8-3.8 3.8z"/></g><circle id="Oval-Copy-7" cx="118" cy="147.1" r="4" fill-rule="evenodd" clip-rule="evenodd" fill="#ffae29" stroke="#fff"/><path id="Path" d="M111.3 187.7s18.1 28.7 31.4 38.6c2.2 1.6 42.6 3.1 42.6 3.1s1.5-1.5 2.6-2.5c1.4-1.1 3.6-1.7 4.3-2.3 1.1-1.1 4-1.8 4-1.8s1 .5-.4 1.8-13.6 13.2-13.6 13.2-31.5 5.9-49.8.8c-19.3-17.1-40.3-44.5-40.3-44.5-3.2-14.1 16.1-17.3 19.2-6.4" fill="#ffe3b0"/><g id="girl" transform="translate(68.687 96.667)"><path id="Fill-1" class="st9" d="M147.4 178.1c-5.9 3.2-14.6 6.9-26.5 9.4-6.5 1.4-20.5-19.7-16.9-24 7-8.5 35.8-15.8 40.2-1.2.7 2 2.3 7.5 3.2 15.8z"/><path id="Fill-6" class="st10" d="M73.5 16c15 11.9 15.7 24.6 8.9 35.4-.8 1.2-1.5 2.4-2 3.6.5 1.2.9 2.4 1.7 3.3 1.9 2.3 4.8 3.6 6.7 5.9 2 2.5 2.8 6.1 1.7 9.1-.7 1.8-2.1 3.4-3.8 4.3 7.2 13.9.6 28.2-12.8 36.8-11 7-29.6 4.3-40.6-2.4-2.7-1.7-8.8-5.9-11.1-7.6C8.4 94.4 1.2 80.7.5 65.6c-.3-6.1 1.6-13 6.7-20.9C11.9 37.3 26.6 34.1 39 21 52.1 7 62.9 7.6 73.5 16z"/><path id="Fill-11" d="M55.8 44.4c-3.4-4.6-3.2-7.4-1.4-13-8.6-2.4-9 8.2-14.4 15.1-5.3 6.7-5.6 3.4-15.7 5.8-8 2-21.9 15.6-15.3 28.7 1.4 2.8 4.1 9 6.2 11 12.2 11.8 22.6 16.4 37.6 14.6 12.4-6 18.5-17.2 16.2-25.9-3.2-11.8-5.8-16.1-3.3-17.5C78.3 55.6 82.4 42.5 81.5 31c-7.2 8.6-27.9 16.5-25.7 13.4" fill-rule="evenodd" clip-rule="evenodd" fill="#e44b03"/><path id="Path-2" d="M119.6 163.8c11.1 3.4 17.2 6 18.3 7.9 1.7 2.8 1.8 8.2 1.8 10-2.7 1.4-7.2 2.8-13.5 4.1l-14.6-10.6 8-11.4z" fill="#e5c893"/><path class="st9" d="M138.2 182.4c0-2.8 0-7.9-3.3-10.2-2.7-1.9-12.4-5.4-15.9-6.4-4.9 4.5-10.9 12.9-18 25.2 15.7-2 28.1-4.9 37.2-8.6z"/><path id="Fill-13" class="st13" d="M48.2 74.2c8.3 5.3 12.3 25.9 3.9 38-4.7 6.8 1.8 29.2 6.3 36.2 16.7 1.6 52.1-4.1 77.4 6.1-12.2 11.5-14.9 10-32.1 36-34.9 7.9-86.9-.3-84.1-29.1 1.6-16.4-4.5-49.1-5-75.6-.3-17 19.3-31.4 19.3-31.4s10.3 17.2 14.3 19.8z"/><path id="Fill-15" class="st9" d="M79.7 32.1C77.3 49 65.9 62.6 54.8 56.3c-4.4-2.5-5.4-.4-8.9 3.2-2.6 2.5-1.8 7.1 1.7 15.5-8.8-5.5-16-15.9-14.5-19.6 4.2-2.9 10.2-7.6 11.4-12.3 1.4-5.1 2.9-10.3 8-10.7 3.5-.3 4.3 2.6 2.7 5.8 7.6 1.1 15.6.1 24.5-6.1"/><path id="Path-3" d="M48.5 46.4c-4.4 17.7-5.5 35.4-3.2 53 3.4 26.4 1 34.8 1 40.5 0 5.7 5.4 19.2 30.4 19.2s5.9-7.7 19-5.3c8.7 1.6 14.2 1 16.6-1.8" fill="none" stroke="#182933" stroke-width="2"/><path class="st13" d="M72.7 44.4c-.2.5-1.2.4-2.3-.1-1.1-.5-1.9-1.3-1.7-1.7.2-.5 1.2-.4 2.3.1 1.1.5 1.9 1.3 1.7 1.7"/><g id="Rectangle-2-Copy-11" transform="rotate(45 -66.642 226.057)"><path id="Rectangle-2" class="st15" d="M13.2.3l-9 .6C1.8 1 0 2.9 0 5.3v38.4c0 2.4 1.8 4.3 4.2 4.4l9 .6c2.5.2 4.6-1.7 4.8-4.2V4.7c0-2.5-2-4.5-4.5-4.5-.1.1-.2.1-.3.1z"/><linearGradient id="Oval_1_" gradientUnits="userSpaceOnUse" x1="-131.242" y1="171.72" x2="-131.242" y2="170.72" gradientTransform="scale(2.25 -4.4545) rotate(45 153.828 242.07)"><stop offset="0" stop-color="#fad961"/><stop offset="1" stop-color="#fb9e4a"/></linearGradient><path id="Oval" d="M4.5 41.2c.6 0 1.1 1 1.1 2.2s-.5 2.2-1.1 2.2-1.1-1-1.1-2.2.5-2.2 1.1-2.2z" fill-rule="evenodd" clip-rule="evenodd" fill="url(#Oval_1_)"/><path id="Combined-Shape" d="M4.7 43.6c.1 0 .1.1.1.2l-.2.4v.5c0 .1 0 .1-.1.1l-.1-.1v-.5l-.2-.4v-.2s.1-.1.1 0c0 0 .2.3.2.4 0 0 .2-.3.2-.4zm.2-1.3l.1.1v1.8c0 .1 0 .1-.1.1l-.1-.1v-1.5l-.3.7c0 .1-.1.1-.1 0l-.3-.7v1.5c0 .1 0 .1-.1.1l-.1-.1v-1.8c0-.1 0-.1.1-.1 0 0 .1 0 .1.1l.4.8.4-.9z" fill="#be5b04"/><path d="M.9 1L11.3.1c.6 0 1 .4 1.1.9v32.5c0 .6-.4 1-1 1H1c-.6 0-1-.4-1-1V2c0-.5.4-.9.9-1z" fill="#fff" transform="translate(1.125 4.455)"/><path d="M2 3.3l7-.6c.5-.1 1 .4 1.1.9V3.9c0 .5-.4.9-.9 1l-7 .6c-.5.1-1-.4-1.1-.9V4.3c0-.6.4-1 .9-1zm0 4.4l4.7-.4c.6 0 1 .4 1.1.9V8.5c0 .5-.4 1-.9 1l-4.7.4c-.6 0-1-.4-1.1-.9V8.7c0-.5.4-.9.9-1zm.1 4.5l5.8-.4c.6 0 1 .4 1.1.9V13c0 .5-.4 1-.9 1l-5.8.4c-.6 0-1-.4-1.1-.9V13.2c-.1-.5.3-1 .9-1zm0 4.5l7-.3c.6 0 1 .4 1 1v.2c0 .5-.4 1-1 1l-7 .3c-.6 0-1-.4-1-1v-.2c0-.6.4-1 1-1zm0 4.5H8c.6 0 1 .4 1 1v.2c0 .6-.4 1-1 1H2.1c-.6 0-1-.4-1-1v-.2c0-.6.5-1 1-1zm0 4.4h7c.6 0 1 .4 1 1v.2c0 .6-.4 1-1 1h-7c-.6 0-1-.4-1-1v-.2c0-.5.5-1 1-1zm0 4.5h2.5c.6 0 1 .4 1 1v.2c0 .6-.4 1-1 1H2.1c-.6 0-1-.4-1-1v-.2c0-.6.5-1 1-1z" fill="#e8e6dd" transform="translate(1.125 4.455)"/><path id="Rectangle-3" class="st20" d="M15.1 7.8h.1c.3 0 .5.2.5.5v4.6c0 .3-.2.5-.5.5h-.1c-.3 0-.5-.2-.5-.5V8.3c0-.3.2-.5.5-.5z"/><path id="Rectangle-3-Copy" class="st20" d="M15.1 4.5h.1c.3 0 .5.2.5.5v1.2c0 .3-.2.5-.5.5h-.1c-.3 0-.5-.2-.5-.5V5c0-.3.2-.5.5-.5z"/></g><path class="st10" d="M68.7 39.5c1.1-.6 2.4-.5 3.5-.2 1.1.4 2.2 1 3 2.2-1.1-.4-2.2-.8-3.2-1.1-1.1-.3-2.2-.5-3.3-.9"/><path id="Fill-32" class="st9" d="M40 87.1s-1.3 34.9 3.5 49.7c.8 2.4 44.6 22.8 44.6 22.8l.8 8s-39.6-6.9-58.6-21c-9.3-25.5-9.2-58-9.2-58 .2-13.7 18.7-12.1 18.9-1.5"/><path id="Fill-34" class="st9" d="M105.1 158.4l7.6.1c2.8.6 3-1 .1-1.7l-3.9-.7c-7.6-1.3-15.4-.5-22.5 2.4l-4 1.7 4.2 7 2.7.6c2.9.7 8.2.4 13.6 0 .8-.1 1.9-.3 2.9-.6.5-.2 2.7-.8 3.1-.8.8.2 1.7.6 2.6.8 1.8-.1 3.4-1.2 3.6-3-1-1.2-1.8-2.3-2.3-3.3-.4-.7-2.9-1.5-7.7-2.5z"/><g id="Group" transform="rotate(15 19.89 156.376)"><g transform="rotate(-15 20.108 1.393)"><path id="Oval-2" class="st15" d="M17.2 5c.8 0 1.2.1 2.2.2C14.6-5.4 9.7.4 4.8 22.8h2.4c4-17 7.3-22.9 10-17.8z"/><ellipse id="Oval-3-Copy-2" class="st15" cx="8.1" cy="31.9" rx="8.1" ry="10"/><ellipse cx="6.7" cy="32.4" rx="5.7" ry="7.6" fill="#1c3251"/><ellipse cx="4.3" cy="32.4" rx="2.4" ry="3.8" fill="#496b83"/></g></g></g></svg>