<svg width="400" height="400" xmlns="http://www.w3.org/2000/svg"><defs><linearGradient x1="50%" y1="100%" x2="50%" y2="0%" id="a"><stop stop-color="#FAD961" offset="0%"/><stop stop-color="#FB9E4A" offset="100%"/></linearGradient><linearGradient x1="28.396%" y1="12.451%" x2="28.395%" y2="114.271%" id="b"><stop stop-color="#FAD961" offset="0%"/><stop stop-color="#FB9E4A" offset="100%"/></linearGradient></defs><g fill="none" fill-rule="evenodd"><circle cx="199.5" cy="199.5" r="199.5" transform="translate(1)" fill="url(#a)"/><path d="M391 141.537C366.236 59.635 290.23 0 200.205 0 93.05 0 5.673 84.548 1 190.584c104.976 22.422 138.462-48.892 216.494-28.027 119.928 32.075 108.714-37.214 173.506-21.02z" fill="#F0933D" opacity=".5"/><path d="M319.216 75.751c-4.628-5.616-4.937-13.572-1.234-19.5-3.394.468-6.789 2.028-9.566 4.68-7.406 6.864-8.023 18.72-1.543 26.364 6.48 7.644 17.743 8.424 24.995 1.404 2.777-2.652 4.628-5.928 5.4-9.516-5.863 3.276-13.423 2.028-18.052-3.432" fill="#FFF"/><path d="M308.879 61.867c-5.863 7.02-6.48 17.16 0 24.96 6.48 7.8 20.057 5.46 24.84-1.56-10.8 5.304-31.474-1.716-24.84-23.4z" fill="#C4C1AD" opacity=".2"/><path d="M381.318 223.18c-64.388-17.302-125.813 42.396-186.771 26.186-74.366-19.951-80.758 58.295-167.908 35.07-2.494-.623-5.145-1.247-7.639-1.714C50.492 351.304 119.87 399 200.471 399 300.872 399 383.969 324.806 398 228.168c-5.3-1.715-10.913-3.43-16.682-4.988z" fill="#FAD45F"/><g fill="#FFF"><path d="M365.184 160.013c0 3.577-2.965 6.531-6.398 6.531-3.589 0-6.398-2.954-6.398-6.531 0-3.577 2.965-6.532 6.398-6.532 3.433.155 6.398 2.955 6.398 6.532M326.172 180.54c0 1.556-1.248 2.8-2.808 2.8a2.792 2.792 0 0 1-2.81-2.8c0-1.554 1.25-2.799 2.81-2.799a2.792 2.792 0 0 1 2.808 2.8M266.563 68.258c0 2.022-1.717 3.733-3.745 3.733-2.03 0-3.746-1.711-3.746-3.733 0-2.022 1.717-3.732 3.746-3.732 2.028 0 3.745 1.555 3.745 3.732M13.143 252.078c0 2.022-1.717 3.733-3.745 3.733-2.029 0-3.746-1.711-3.746-3.733 0-2.022 1.717-3.732 3.746-3.732 2.028 0 3.745 1.555 3.745 3.732M121.127 188.939c0 2.021-1.716 3.732-3.745 3.732s-3.745-1.71-3.745-3.732c0-2.022 1.716-3.733 3.745-3.733 2.185 0 3.745 1.555 3.745 3.733M171.53 131.398c0 1.088-.78 1.866-1.872 1.866-1.093 0-1.873-.778-1.873-1.866 0-1.089.78-1.866 1.873-1.866.936 0 1.872.777 1.872 1.866M172.154 381.468c0 1.71-1.404 3.11-3.12 3.11-1.717 0-3.122-1.4-3.122-3.11 0-1.711 1.405-3.11 3.121-3.11 1.717 0 3.121 1.399 3.121 3.11M313.845 342.433c0 1.71-1.405 3.11-3.121 3.11-1.717 0-3.121-1.4-3.121-3.11s1.404-3.11 3.12-3.11c1.561 0 3.122 1.4 3.122 3.11M121.907 67.636c0 1.71-1.404 3.11-3.12 3.11-1.717 0-3.122-1.4-3.122-3.11s1.405-3.11 3.121-3.11c1.717 0 3.121 1.4 3.121 3.11M236.758 257.521c0 1.089-.78 1.866-1.873 1.866-1.092 0-1.872-.777-1.872-1.866 0-1.088.78-1.866 1.872-1.866s1.873.933 1.873 1.866M205.08 227.818c0 1.088-.78 1.866-1.872 1.866-1.093 0-1.873-.778-1.873-1.866 0-1.089.78-1.867 1.873-1.867.936 0 1.872.934 1.872 1.867M268.28 224.24c0 1.09-.781 1.867-1.873 1.867-1.093 0-1.873-.778-1.873-1.866 0-1.089.78-1.866 1.873-1.866 1.092 0 1.872.777 1.872 1.866M299.957 129.532c0 1.088-.78 1.866-1.873 1.866-1.092 0-1.872-.778-1.872-1.866 0-1.09.78-1.867 1.872-1.867s1.873.778 1.873 1.867M298.24 263.12c0 1.088-.78 1.866-1.872 1.866-1.093 0-1.873-.778-1.873-1.866 0-1.089.78-1.866 1.873-1.866 1.092 0 1.872.933 1.872 1.866M167.785 263.12c0 1.088-.78 1.866-1.873 1.866-1.092 0-1.872-.778-1.872-1.866 0-1.089.78-1.866 1.872-1.866.937 0 1.873.933 1.873 1.866M234.885 198.114c0 1.089-.78 1.866-1.872 1.866-1.093 0-1.873-.777-1.873-1.866s.78-1.866 1.873-1.866c.936 0 1.872.933 1.872 1.866M236.758 298.422c0 1.089-.78 1.866-1.873 1.866-1.092 0-1.872-.777-1.872-1.866s.78-1.866 1.872-1.866 1.873.933 1.873 1.866M238.474 90.497c0 1.089-.78 1.866-1.872 1.866-1.093 0-1.873-.777-1.873-1.866s.78-1.866 1.873-1.866c1.092 0 1.872.777 1.872 1.866M268.28 129.532c0 1.088-.781 1.866-1.873 1.866-1.093 0-1.873-.778-1.873-1.866 0-1.09.78-1.867 1.873-1.867 1.092 0 1.872.778 1.872 1.867M137.98 129.532c0 1.088-.78 1.866-1.872 1.866-1.093 0-1.873-.778-1.873-1.866 0-1.09.78-1.867 1.873-1.867.936 0 1.872.778 1.872 1.867M205.08 64.526c0 1.088-.78 1.866-1.872 1.866-1.093 0-1.873-.778-1.873-1.866 0-1.089.78-1.866 1.873-1.866.936 0 1.872.777 1.872 1.866M206.797 164.678c0 1.089-.78 1.866-1.873 1.866-1.092 0-1.872-.777-1.872-1.866 0-1.088.78-1.866 1.872-1.866 1.092.155 1.873.933 1.873 1.866"/></g><path d="M400 207.218l-150.775-21.24c-.468 0-.78-.156-1.091-.468l-48.803-28.893a3.005 3.005 0 0 0-1.56-.468h-19.646c-.78 0-1.559.312-2.027.78-1.247 1.094-1.403 3.124-.155 4.374l36.017 39.512c.312.312.78.624 1.248.78l96.67 35.608-149.216 39.981C73.192 192.381 22.83 146.934 9.576 141 3.962 159.429 1 178.794 1 199.097 1 309.512 90.342 399 200.578 399 308.007 399 395.79 313.885 400 207.218z" fill="#182933"/><path d="M375.148 225.476c-9.21-2.662-19.2-1.723-27.94 2.819L306 249.748l32.779 32.26 9.99-5.482 3.59 44.474 9.833-3.602c17.794-25.055 30.97-54.339 35.808-85.972-8.429-2.192-16.921-4.228-22.852-5.95z" fill="#FFE3B0"/><path d="M53.691 168C24.215 168 .54 153.674 5.714 124.242 10.888 94.811 26.567 85 56.044 85 85.52 85 107 107.58 107 129.07 107 150.56 83.168 168 53.691 168z" fill="#182C48"/><path d="M69.652 87.197c33.591 2.713 52.422 20.06 52.382 48.66-.04 28.6 10.832 27.176 30.966 41.792 20.133 14.617-2.99 40.009 16.018 53.298 19.086 13.425 8.238 25.799-5.336 52.148-11.14 21.529-36.122 16.9-60.237 16.266-5.875-.203-23.325-20.144-28.66-20.658-31.468-3.4-37.492-11.964-49.167-22.837-7.914-7.473-14.278-33.454-13.362-50.878.63-16.36-2.642-41.97 5.188-74.528 8.38-35.034 27.661-45.267 52.208-43.263z" fill="#F27B01"/><path d="M51.166 131.84c-16.02 4.037-5.784 22.39-8.173 38.508-2.198 15.826-6.219 10.42-19.786 24.004-6.851 6.831-6.855 34.871 7.53 46.697 8.006 6.7 1.399 11.773 12.286 18.787 27.43 17.594 49.029 12.313 71.47-4.598 14.29-21.37 19.259-39.876 10.797-54.221-11.633-19.525-27.896-23.076-25.384-27.762 13.371-23.895 7.163-49.607-5.062-67.352C91.256 126.487 66 159.4 66.55 152.253c-9.813-4.22.48-20.047-15.384-20.414z" fill="#E44B03"/><path d="M76.06 172.464c-9.351.008-9.025 4.312-11.48 13.459-1.714 6.38 6.012 10.727 21.435 16.56-21.345 1.36-45.15 1.264-46.28-5.991 3.764-10.62 9.63-26.948 7.296-35.665-2.453-9.547-4.984-19.23 2.993-24.734 5.434-3.676 9.294.206 9.765 6.943 13.214-5.472 25.234-14.568 33.778-32.801 12.02 29.545 6.142 62.056-17.507 62.23z" fill="#FFE3B0"/><path d="M93.886 136.651c.119.83-1.5 1.765-3.722 1.969-2.22.204-4.136-.308-4.39-1.06-.12-.83 1.5-1.765 3.721-1.969 2.144-.339 4.193.095 4.39 1.06" fill="#355368"/><path d="M82.817 132.437c1.21-1.956 3.311-2.99 5.512-3.541 2.2-.552 4.655-.351 6.746.778-2.278.416-4.209.812-6.14 1.208-2.065.473-4.053 1.082-6.118 1.555" fill="#F27B01"/><path d="M89.1 208.9s49.61 44.879 80.342 56.626c5.02 1.878 83.566-15.623 83.566-15.623s2.094-3.623 3.868-6.032c2.145-2.831 6.077-5.013 7-6.388 1.733-2.56 6.789-5.364 6.789-5.364s2.198.378.174 3.66c-1.874 3.241-19.28 31.593-19.28 31.593s-57.642 26.886-95.439 26.7c-45.835-22.363-100.18-63.235-100.18-63.235-13.902-24.797 21.66-40.772 33.16-21.938z" fill="#FFE3B0"/><path d="M84.163 202.301c24.113 4.723 50.205 17.813 55.146 45.01 2.745 15.306 40.726 36.098 55.81 39.284 35.352-6.515 76.767-25.918 116.985-72.519 9.583-6.282 66.93 44.674 78.462 101.6-56.082 61.365-189.34 85.66-229.289 39.1-20.14-23.444-70.446-58.547-105.997-92.775-22.893-22.012-16.043-66.724-16.043-66.724s34.796 5.047 44.926 7.024z" fill="#355368"/><path d="M314.177 205.282l-13.96-6.982c-3.665-1.756-8.21-.427-10.312 3.213l-34.166 59.176c-2.1 3.64-.98 8.241 2.373 10.537l13.027 8.6c3.623 2.45 8.439 1.276 10.888-2.342l.233-.405 35.177-60.929c2.18-3.774 1-8.588-2.777-10.77-.213.057-.348-.02-.483-.098z" fill="#182933"/><path d="M304.798 260.154c1.09 0 1.87 1.712 1.87 3.891 0 2.18-.935 3.892-1.87 3.892-1.091 0-1.87-1.712-1.87-3.892 0-2.179.779-3.89 1.87-3.89z" fill="url(#b)" transform="rotate(30 283.798 185.672)"/><path d="M262.834 264.606c.135.078.057.212-.02.347l-.582.384-.389.674c-.078.134-.156.27-.29.191 0 0-.058-.212.02-.347l.311-.54.042-.694.156-.27c.077-.135.212-.057.135.078l-.042.695c.078-.135.524-.596.66-.518z" fill="#BE5B04" fill-rule="nonzero"/><path d="M264.271 262.74s.057.212-.02.347l-1.635 2.83c-.078.136-.155.27-.29.192 0 0-.057-.212.02-.347l1.323-2.292-1.027.845c-.078.135-.213.057-.27-.156l.218-1.312-1.245 2.157c-.078.135-.156.27-.29.192 0 0-.058-.213.02-.348l1.634-2.83c.078-.135.078-.135.213-.058 0 0 .135.078.057.213l-.16 1.525 1.452-.959z" fill="#BE5B04" fill-rule="nonzero"/><path d="M292.658 203.445l16.643 7.632c.753.255 1.039 1.319.784 2.07l-.077.135-29.107 50.415c-.467.809-1.318 1.036-2.128.569l-15.788-9.115c-.81-.468-1.038-1.318-.57-2.127l28.25-48.932c.39-.674 1.24-.902 1.993-.647z" fill="#FFF"/><path d="M292.253 207.885l11.418 5.154c.753.255 1.038 1.318.784 2.07l-.078.135-.389.674c-.39.674-1.24.901-1.993.647l-11.417-5.154c-.753-.255-1.038-1.319-.784-2.07l.078-.135.389-.674c.467-.81 1.318-1.037 1.992-.647zm-3.969 6.874l7.811 3.611c.81.468 1.038 1.319.784 2.07l-.078.135-.389.674c-.39.674-1.318 1.037-1.993.647l-7.81-3.61c-.81-.468-1.039-1.319-.784-2.07l.077-.136.39-.674c.467-.808 1.318-1.036 1.992-.647zm-3.834 6.953l9.352 4.68c.81.468 1.038 1.319.784 2.07l-.078.136-.389.674c-.389.674-1.318 1.036-1.992.646l-9.353-4.68c-.81-.468-1.038-1.318-.784-2.07l.078-.135.39-.674c.331-.887 1.183-1.114 1.992-.647zm-3.969 6.875l11.029 5.828c.81.467 1.038 1.318.57 2.127l-.388.674c-.39.674-1.318 1.036-2.128.569l-11.029-5.828c-.81-.468-1.038-1.318-.57-2.127l.388-.674c.39-.674 1.453-.959 2.128-.57zm-3.97 6.875l9.042 5.22c.81.467 1.038 1.318.57 2.126l-.388.674c-.467.81-1.318 1.037-2.128.57l-9.04-5.22c-.81-.468-1.039-1.319-.572-2.128l.39-.674c.388-.674 1.452-.958 2.127-.568zm-3.968 6.874l10.795 6.233c.81.467 1.038 1.318.57 2.127l-.388.674c-.467.809-1.318 1.036-2.128.569l-10.795-6.233c-.81-.467-1.038-1.318-.571-2.127l.39-.674c.388-.674 1.452-.958 2.127-.569zm-3.97 6.875l4.049 2.337c.81.468 1.038 1.318.57 2.127l-.388.674c-.467.809-1.318 1.037-2.128.57l-4.048-2.338c-.81-.467-1.038-1.318-.571-2.127l.389-.674c.467-.809 1.453-.959 2.128-.569z" fill="#E8E6DD" fill-rule="nonzero"/><path d="M310.26 218.298l.27.155c.405.234.52.66.286 1.064l-4.203 7.279c-.233.404-.659.518-1.063.284l-.27-.155c-.405-.234-.52-.66-.286-1.064l4.203-7.279c.155-.27.794-.44 1.064-.284zM313.218 213.175l.27.156c.405.234.519.66.285 1.064l-1.167 2.021c-.233.405-.659.519-1.064.285l-.27-.156c-.404-.234-.519-.659-.285-1.063l1.167-2.022c.156-.27.794-.44 1.064-.285z" fill="#39474F"/><path d="M80.306 231.82s20.568 59.46 38.174 81.406c2.96 3.424 92.865-11.362 92.865-11.362l6.544 13.074s-74.167 34.555-115.146 23.037c-32.253-36.89-53.132-91.524-53.132-91.524-8.414-23.347 23.528-32.375 30.695-14.63" fill="#FFE3B0"/><path d="M246.247 307.778s9.505 2.958 12.153 3.736c2.65.778 6.233 6.226 7.324 8.872.935 2.49-5.921 6.07-8.258 5.448 0 0-6.856-3.736-8.882-4.514-2.025-.623-3.428.156-2.181.934 1.402.623 2.804 2.646 4.051 3.736 1.246 1.09-1.247 2.179-2.026 1.867-2.025-.934-7.634-3.268-7.634-3.268-13.089-1.401-21.658-2.024-25.398-2.024-3.74 0-7.323-1.245-10.751-3.735l-6.077-14.01 8.882-1.867c2.493-.467 5.141-.934 7.634-1.245 6.233-2.335 12.154-4.047 15.893-4.047 1.403.311 2.65 0 3.117-.156 1.558-.155 2.181 1.09 1.246 2.18-.935 1.089-1.558 1.245-2.337 1.712 8.414.31 13.711 1.245 21.658 3.58l7.79 2.334c5.921 2.024 4.83 4.826-.779 2.958l-15.425-2.49z" fill="#FFE3B0"/><path d="M58.998 155.686l3 .002c-.024 29.416 9.33 50.24 28.037 62.659 9.858 6.544 16.81 14.86 22.297 25.483 1.695 3.28 3.214 6.69 4.863 10.795.805 2.005 3.394 8.733 3.883 9.961 3.241 8.14 5.724 12.443 9.21 15.16.726.566 1.454 1.14 2.467 1.943l1.256.996c8.446 6.695 12.947 9.75 19.164 12.431 8.116 3.5 17.16 4.934 28.282 4.07 8.41-.652 14.704-1.973 23.76-4.6l1.679-.49.833-.245.83-.243c1.341-.393 2.33-.678 3.305-.95 11.325-3.168 19.715-4.006 31.908-2.314 17.44 2.42 26.22-2.596 27.203-15.146l2.99.235c-1.138 14.522-11.628 20.516-30.605 17.883-11.749-1.63-19.734-.833-30.688 2.23a279.481 279.481 0 0 0-4.099 1.184l-.833.244c-.678.2-1.186.347-1.688.493-9.235 2.68-15.717 4.04-24.363 4.71-11.6.901-21.131-.61-29.702-4.306-6.528-2.815-11.198-5.984-19.84-12.835-.162-.13-1.014-.805-1.255-.996a376.111 376.111 0 0 0-2.448-1.928c-4.036-3.145-6.724-7.804-10.153-16.416-.498-1.252-3.085-7.974-3.88-9.952-1.616-4.025-3.099-7.353-4.744-10.538-5.267-10.196-11.892-18.12-21.291-24.36-19.618-13.023-29.402-34.805-29.378-65.16z" fill="#182933" fill-rule="nonzero"/><g><g transform="rotate(-30 191.41 28.293)" fill-rule="nonzero"><path d="M31.282 9.081c1.37.014 2.258.144 4.082.304C26.536-9.805 17.637.801 8.669 41.201h4.454c7.236-30.692 13.29-41.4 18.16-32.12z" fill="#182933"/><ellipse fill="#182933" cx="14.738" cy="57.544" rx="14.738" ry="18.063"/><ellipse fill="#1C3251" cx="12.137" cy="58.404" rx="10.403" ry="13.762"/><ellipse fill="#496B83" cx="7.802" cy="58.404" rx="4.335" ry="6.881"/></g></g></g></svg>